<?xml version="1.0" encoding="UTF-8"?>
<!DOCTYPE svg PUBLIC "-//W3C//DTD SVG 1.1//EN" "http://www.w3.org/Graphics/SVG/1.1/DTD/svg11.dtd">
<svg xmlns="http://www.w3.org/2000/svg" version="1.1" width="1024px" height="1024px" style="shape-rendering:geometricPrecision; text-rendering:geometricPrecision; image-rendering:optimizeQuality; fill-rule:evenodd; clip-rule:evenodd" xmlns:xlink="http://www.w3.org/1999/xlink">
<g><path style="opacity:1" fill="#160e24" d="M -0.5,-0.5 C 340.833,-0.5 682.167,-0.5 1023.5,-0.5C 1023.5,340.833 1023.5,682.167 1023.5,1023.5C 682.167,1023.5 340.833,1023.5 -0.5,1023.5C -0.5,682.167 -0.5,340.833 -0.5,-0.5 Z"/></g>
<g><path style="opacity:1" fill="#46f4fa" d="M 543.5,202.5 C 543.628,204.655 543.128,206.655 542,208.5C 540.173,207.341 538.507,206.008 537,204.5C 536.667,205.167 536.333,205.833 536,206.5C 535.333,205.167 534.667,205.167 534,206.5C 533.363,204.697 532.197,203.364 530.5,202.5C 529.595,204.638 528.595,206.805 527.5,209C 528.174,210.751 528.507,212.417 528.5,214C 526.774,215.53 524.774,216.53 522.5,217C 524.781,218.482 524.781,220.149 522.5,222C 521.207,222.49 519.873,222.657 518.5,222.5C 517.712,226.066 515.878,229.066 513,231.5C 512.586,231.043 512.086,230.709 511.5,230.5C 509.638,232.737 507.471,233.403 505,232.5C 505.077,233.738 504.911,234.738 504.5,235.5C 503.833,235.167 503.167,234.833 502.5,234.5C 499.891,235.23 497.224,235.73 494.5,236C 492.671,236.273 491.171,237.107 490,238.5C 489.667,237.833 489.333,237.167 489,236.5C 489.006,238.298 489.339,239.965 490,241.5C 488.413,240.273 487.079,240.606 486,242.5C 485.577,241.044 484.744,240.544 483.5,241C 484.833,242.84 484.666,243.34 483,242.5C 477.717,246.434 472.383,250.434 467,254.5C 466,253.833 465,253.167 464,252.5C 462.433,253.856 460.6,254.523 458.5,254.5C 458.657,255.873 458.49,257.207 458,258.5C 457.026,256.122 456.359,256.456 456,259.5C 454.442,258.655 453.442,259.321 453,261.5C 451.853,260.542 450.853,260.875 450,262.5C 448.417,262.507 446.751,262.174 445,261.5C 443.601,262.227 442.101,262.727 440.5,263C 441.167,263.333 441.833,263.667 442.5,264C 439.159,264.672 436.659,266.506 435,269.5C 434.586,269.043 434.086,268.709 433.5,268.5C 428.768,274.861 422.268,279.527 414,282.5C 413.549,280.071 412.715,279.904 411.5,282C 412.451,282.718 412.617,283.551 412,284.5C 411,284.167 410,283.833 409,283.5C 406.538,286.77 403.871,287.103 401,284.5C 400.683,286.301 400.016,286.634 399,285.5C 394.795,289.412 392.628,293.579 392.5,298C 388.146,299.416 384.646,301.916 382,305.5C 380.334,304.66 380.167,305.16 381.5,307C 379.721,306.021 378.055,306.354 376.5,308C 375.167,308.667 375.167,309.333 376.5,310C 374.782,310.346 373.115,310.846 371.5,311.5C 370.914,311.291 370.414,310.957 370,310.5C 369.228,311.849 368.061,312.682 366.5,313C 367.167,313.333 367.833,313.667 368.5,314C 367.333,314.5 366.5,315.333 366,316.5C 364.113,314.974 363.113,312.974 363,310.5C 361.118,314.988 359.785,319.655 359,324.5C 358.667,324.167 358.333,323.833 358,323.5C 357.334,330.493 356.834,337.493 356.5,344.5C 356.672,345.492 356.338,346.158 355.5,346.5C 355.333,323.498 355.5,300.498 356,277.5C 357.738,273.759 360.238,270.592 363.5,268C 411.329,241.253 458.996,214.253 506.5,187C 509.833,186.333 513.167,186.333 516.5,187C 525.563,192.194 534.563,197.36 543.5,202.5 Z"/></g>
<g><path style="opacity:1" fill="#47f0f9" d="M 543.5,202.5 C 551.329,206.58 558.996,210.913 566.5,215.5C 564.316,217.395 561.816,217.395 559,215.5C 557.295,216.763 555.628,217.097 554,216.5C 553.517,217.448 553.351,218.448 553.5,219.5C 549.026,220.429 545.192,222.762 542,226.5C 541.667,226.167 541.333,225.833 541,225.5C 538.798,227.696 536.298,229.529 533.5,231C 532.809,232.067 532.309,233.234 532,234.5C 531.667,233.833 531.333,233.167 531,232.5C 528.833,235 526.667,237.5 524.5,240C 523.167,240.333 521.833,240.667 520.5,241C 520.619,242.281 520.119,243.448 519,244.5C 518.667,244.167 518.333,243.833 518,243.5C 517.583,244.756 516.75,245.423 515.5,245.5C 513.956,245.297 512.622,244.63 511.5,243.5C 478.601,262.78 445.601,281.78 412.5,300.5C 411.67,310.659 411.17,320.992 411,331.5C 410.501,326.177 410.334,320.844 410.5,315.5C 410.666,310.489 410.499,305.489 410,300.5C 409.83,302.715 409.163,304.715 408,306.5C 407.667,305.833 407.333,305.167 407,304.5C 406.472,311.073 405.638,311.073 404.5,304.5C 403.066,306.22 402.233,308.22 402,310.5C 400.732,310.384 399.398,310.051 398,309.5C 397.333,310.167 396.667,310.833 396,311.5C 395.282,310.549 394.449,310.383 393.5,311C 394.711,311.893 394.711,312.726 393.5,313.5C 387.784,315.191 382.451,317.691 377.5,321C 372.567,325.947 367.234,330.28 361.5,334C 359.711,337.397 358.378,340.897 357.5,344.5C 357.167,344.5 356.833,344.5 356.5,344.5C 356.834,337.493 357.334,330.493 358,323.5C 358.333,323.833 358.667,324.167 359,324.5C 359.785,319.655 361.118,314.988 363,310.5C 363.113,312.974 364.113,314.974 366,316.5C 366.5,315.333 367.333,314.5 368.5,314C 367.833,313.667 367.167,313.333 366.5,313C 368.061,312.682 369.228,311.849 370,310.5C 370.414,310.957 370.914,311.291 371.5,311.5C 373.115,310.846 374.782,310.346 376.5,310C 375.167,309.333 375.167,308.667 376.5,308C 378.055,306.354 379.721,306.021 381.5,307C 380.167,305.16 380.334,304.66 382,305.5C 384.646,301.916 388.146,299.416 392.5,298C 392.628,293.579 394.795,289.412 399,285.5C 400.016,286.634 400.683,286.301 401,284.5C 403.871,287.103 406.538,286.77 409,283.5C 410,283.833 411,284.167 412,284.5C 412.617,283.551 412.451,282.718 411.5,282C 412.715,279.904 413.549,280.071 414,282.5C 422.268,279.527 428.768,274.861 433.5,268.5C 434.086,268.709 434.586,269.043 435,269.5C 436.659,266.506 439.159,264.672 442.5,264C 441.833,263.667 441.167,263.333 440.5,263C 442.101,262.727 443.601,262.227 445,261.5C 446.751,262.174 448.417,262.507 450,262.5C 450.853,260.875 451.853,260.542 453,261.5C 453.442,259.321 454.442,258.655 456,259.5C 456.359,256.456 457.026,256.122 458,258.5C 458.49,257.207 458.657,255.873 458.5,254.5C 460.6,254.523 462.433,253.856 464,252.5C 465,253.167 466,253.833 467,254.5C 472.383,250.434 477.717,246.434 483,242.5C 484.666,243.34 484.833,242.84 483.5,241C 484.744,240.544 485.577,241.044 486,242.5C 487.079,240.606 488.413,240.273 490,241.5C 489.339,239.965 489.006,238.298 489,236.5C 489.333,237.167 489.667,237.833 490,238.5C 491.171,237.107 492.671,236.273 494.5,236C 497.224,235.73 499.891,235.23 502.5,234.5C 503.167,234.833 503.833,235.167 504.5,235.5C 504.911,234.738 505.077,233.738 505,232.5C 507.471,233.403 509.638,232.737 511.5,230.5C 512.086,230.709 512.586,231.043 513,231.5C 515.878,229.066 517.712,226.066 518.5,222.5C 519.873,222.657 521.207,222.49 522.5,222C 524.781,220.149 524.781,218.482 522.5,217C 524.774,216.53 526.774,215.53 528.5,214C 528.507,212.417 528.174,210.751 527.5,209C 528.595,206.805 529.595,204.638 530.5,202.5C 532.197,203.364 533.363,204.697 534,206.5C 534.667,205.167 535.333,205.167 536,206.5C 536.333,205.833 536.667,205.167 537,204.5C 538.507,206.008 540.173,207.341 542,208.5C 543.128,206.655 543.628,204.655 543.5,202.5 Z"/></g>
<g><path style="opacity:1" fill="#47e9f9" d="M 566.5,215.5 C 574.995,219.913 583.328,224.58 591.5,229.5C 591.5,229.833 591.5,230.167 591.5,230.5C 587.642,228.653 583.808,226.653 580,224.5C 579.667,225.167 579.333,225.833 579,226.5C 576.442,221.999 573.442,221.999 570,226.5C 569.667,226.167 569.333,225.833 569,225.5C 566.543,227.325 564.376,229.491 562.5,232C 560.152,232.346 558.319,233.513 557,235.5C 556.586,235.043 556.086,234.709 555.5,234.5C 553.446,236.665 551.612,238.999 550,241.5C 549.667,241.167 549.333,240.833 549,240.5C 548.544,241.744 549.044,242.577 550.5,243C 548.733,244.118 546.899,244.618 545,244.5C 544.05,243.978 543.216,243.311 542.5,242.5C 540.024,243.815 537.857,245.482 536,247.5C 534.096,246.898 532.263,247.398 530.5,249C 531.5,249.333 532.5,249.667 533.5,250C 532.167,251.333 532.167,252.667 533.5,254C 535.996,255.08 538.33,256.414 540.5,258C 539.906,258.464 539.239,258.631 538.5,258.5C 530.636,254.404 522.969,250.071 515.5,245.5C 516.75,245.423 517.583,244.756 518,243.5C 518.333,243.833 518.667,244.167 519,244.5C 520.119,243.448 520.619,242.281 520.5,241C 521.833,240.667 523.167,240.333 524.5,240C 526.667,237.5 528.833,235 531,232.5C 531.333,233.167 531.667,233.833 532,234.5C 532.309,233.234 532.809,232.067 533.5,231C 536.298,229.529 538.798,227.696 541,225.5C 541.333,225.833 541.667,226.167 542,226.5C 545.192,222.762 549.026,220.429 553.5,219.5C 553.351,218.448 553.517,217.448 554,216.5C 555.628,217.097 557.295,216.763 559,215.5C 561.816,217.395 564.316,217.395 566.5,215.5 Z"/></g>
<g><path style="opacity:1" fill="#47e3fa" d="M 591.5,230.5 C 592.463,231.363 592.463,232.03 591.5,232.5C 588.913,230.238 586.246,230.071 583.5,232C 583.833,232.333 584.167,232.667 584.5,233C 579.179,234.23 575.679,237.397 574,242.5C 570.711,242.085 568.711,243.752 568,247.5C 567.667,247.167 567.333,246.833 567,246.5C 565.899,248.394 564.566,249.061 563,248.5C 562,250.833 561,253.167 560,255.5C 558.598,253.027 557.098,253.027 555.5,255.5C 554.914,255.291 554.414,254.957 554,254.5C 551.931,255.264 549.764,255.764 547.5,256C 546.939,257.566 547.606,258.899 549.5,260C 548.692,260.308 548.025,260.808 547.5,261.5C 550.5,263.333 553.5,265.167 556.5,267C 555.906,267.464 555.239,267.631 554.5,267.5C 548.808,264.991 543.474,261.991 538.5,258.5C 539.239,258.631 539.906,258.464 540.5,258C 538.33,256.414 535.996,255.08 533.5,254C 532.167,252.667 532.167,251.333 533.5,250C 532.5,249.667 531.5,249.333 530.5,249C 532.263,247.398 534.096,246.898 536,247.5C 537.857,245.482 540.024,243.815 542.5,242.5C 543.216,243.311 544.05,243.978 545,244.5C 546.899,244.618 548.733,244.118 550.5,243C 549.044,242.577 548.544,241.744 549,240.5C 549.333,240.833 549.667,241.167 550,241.5C 551.612,238.999 553.446,236.665 555.5,234.5C 556.086,234.709 556.586,235.043 557,235.5C 558.319,233.513 560.152,232.346 562.5,232C 564.376,229.491 566.543,227.325 569,225.5C 569.333,225.833 569.667,226.167 570,226.5C 573.442,221.999 576.442,221.999 579,226.5C 579.333,225.833 579.667,225.167 580,224.5C 583.808,226.653 587.642,228.653 591.5,230.5 Z"/></g>
<g><path style="opacity:1" fill="#49ddfa" d="M 591.5,229.5 C 597.367,232.596 603.033,235.929 608.5,239.5C 607.833,239.5 607.167,239.5 606.5,239.5C 602.481,239.354 598.481,239.021 594.5,238.5C 594.649,239.552 594.483,240.552 594,241.5C 593.667,241.167 593.333,240.833 593,240.5C 592.065,243.102 590.232,244.602 587.5,245C 587.833,245.333 588.167,245.667 588.5,246C 587.376,246.249 586.376,246.749 585.5,247.5C 583.686,251.409 580.686,253.909 576.5,255C 574.875,255.853 574.542,256.853 575.5,258C 570.202,261.33 565.202,264.83 560.5,268.5C 563.671,270.443 566.338,272.11 568.5,273.5C 569.429,274.315 570.429,275.148 571.5,276C 571.272,276.399 570.938,276.565 570.5,276.5C 564.808,273.991 559.474,270.991 554.5,267.5C 555.239,267.631 555.906,267.464 556.5,267C 553.5,265.167 550.5,263.333 547.5,261.5C 548.025,260.808 548.692,260.308 549.5,260C 547.606,258.899 546.939,257.566 547.5,256C 549.764,255.764 551.931,255.264 554,254.5C 554.414,254.957 554.914,255.291 555.5,255.5C 557.098,253.027 558.598,253.027 560,255.5C 561,253.167 562,250.833 563,248.5C 564.566,249.061 565.899,248.394 567,246.5C 567.333,246.833 567.667,247.167 568,247.5C 568.711,243.752 570.711,242.085 574,242.5C 575.679,237.397 579.179,234.23 584.5,233C 584.167,232.667 583.833,232.333 583.5,232C 586.246,230.071 588.913,230.238 591.5,232.5C 592.463,232.03 592.463,231.363 591.5,230.5C 591.5,230.167 591.5,229.833 591.5,229.5 Z"/></g>
<g><path style="opacity:1" fill="#49d7fb" d="M 606.5,239.5 C 606.414,240.496 606.748,241.329 607.5,242C 606.874,242.75 606.374,243.584 606,244.5C 605.667,244.167 605.333,243.833 605,243.5C 602.658,244.79 600.324,246.79 598,249.5C 597.667,249.167 597.333,248.833 597,248.5C 595.668,251.583 593.835,254.249 591.5,256.5C 590.811,258.444 590.311,260.444 590,262.5C 589.667,261.833 589.333,261.167 589,260.5C 587.203,261.999 585.369,263.499 583.5,265C 580.692,265.598 578.192,266.765 576,268.5C 575.667,268.167 575.333,267.833 575,267.5C 574.667,268.5 574.333,269.5 574,270.5C 573.667,270.167 573.333,269.833 573,269.5C 570.882,270.283 569.382,271.616 568.5,273.5C 566.338,272.11 563.671,270.443 560.5,268.5C 565.202,264.83 570.202,261.33 575.5,258C 574.542,256.853 574.875,255.853 576.5,255C 580.686,253.909 583.686,251.409 585.5,247.5C 586.376,246.749 587.376,246.249 588.5,246C 588.167,245.667 587.833,245.333 587.5,245C 590.232,244.602 592.065,243.102 593,240.5C 593.333,240.833 593.667,241.167 594,241.5C 594.483,240.552 594.649,239.552 594.5,238.5C 598.481,239.021 602.481,239.354 606.5,239.5 Z"/></g>
<g><path style="opacity:1" fill="#49d0fa" d="M 606.5,239.5 C 607.167,239.5 607.833,239.5 608.5,239.5C 614.165,241.997 619.498,244.997 624.5,248.5C 621.972,247.989 619.472,247.322 617,246.5C 610.725,252.61 604.558,258.944 598.5,265.5C 599.891,267.936 599.391,268.602 597,267.5C 595.333,268.833 593.667,270.167 592,271.5C 588.091,272.695 583.925,272.695 579.5,271.5C 579.5,272.5 579.5,273.5 579.5,274.5C 577.516,274.383 575.85,275.05 574.5,276.5C 576.956,278.567 579.622,280.401 582.5,282C 583.738,282.69 583.738,283.19 582.5,283.5C 578.136,281.656 574.136,279.323 570.5,276.5C 570.938,276.565 571.272,276.399 571.5,276C 570.429,275.148 569.429,274.315 568.5,273.5C 569.382,271.616 570.882,270.283 573,269.5C 573.333,269.833 573.667,270.167 574,270.5C 574.333,269.5 574.667,268.5 575,267.5C 575.333,267.833 575.667,268.167 576,268.5C 578.192,266.765 580.692,265.598 583.5,265C 585.369,263.499 587.203,261.999 589,260.5C 589.333,261.167 589.667,261.833 590,262.5C 590.311,260.444 590.811,258.444 591.5,256.5C 593.835,254.249 595.668,251.583 597,248.5C 597.333,248.833 597.667,249.167 598,249.5C 600.324,246.79 602.658,244.79 605,243.5C 605.333,243.833 605.667,244.167 606,244.5C 606.374,243.584 606.874,242.75 607.5,242C 606.748,241.329 606.414,240.496 606.5,239.5 Z"/></g>
<g><path style="opacity:1" fill="#4cc4fb" d="M 642.5,258.5 C 643.167,258.833 643.833,259.167 644.5,259.5C 644.586,260.496 644.252,261.329 643.5,262C 639.376,261.165 636.209,262.665 634,266.5C 633.667,265.833 633.333,265.167 633,264.5C 627.679,268.489 622.679,272.822 618,277.5C 617.667,277.167 617.333,276.833 617,276.5C 616.667,277.5 616.333,278.5 616,279.5C 615.667,279.167 615.333,278.833 615,278.5C 613.902,279.967 612.402,280.801 610.5,281C 611.28,282.073 611.113,283.24 610,284.5C 609.667,283.833 609.333,283.167 609,282.5C 608.727,284.329 607.893,285.829 606.5,287C 603.909,288.398 601.909,289.731 600.5,291C 602.018,292.351 603.351,293.851 604.5,295.5C 602.181,295.008 600.181,294.008 598.5,292.5C 598.631,291.624 598.298,290.957 597.5,290.5C 595.338,288.98 593.005,287.98 590.5,287.5C 590.714,285.856 590.38,284.356 589.5,283C 590.253,281.513 591.086,281.346 592,282.5C 594.271,280.566 596.271,280.566 598,282.5C 599.049,280.893 600.549,280.227 602.5,280.5C 604.177,277.299 605.677,273.965 607,270.5C 608,270.5 609,270.5 610,270.5C 612.597,268.114 615.097,265.614 617.5,263C 620.994,261.783 624.327,260.283 627.5,258.5C 628.086,258.709 628.586,259.043 629,259.5C 630,258.167 631,256.833 632,255.5C 635.516,256.437 639.016,257.437 642.5,258.5 Z"/></g>
<g><path style="opacity:1" fill="#4cbcf9" d="M 644.5,259.5 C 650.315,262.909 656.315,266.075 662.5,269C 664.041,270.371 665.375,271.871 666.5,273.5C 666.565,273.938 666.399,274.272 666,274.5C 664.961,273.29 663.794,272.29 662.5,271.5C 657.01,269.505 651.844,266.838 647,263.5C 644.266,264.362 644.099,265.195 646.5,266C 642.306,268.493 639.473,271.659 638,275.5C 637.667,275.167 637.333,274.833 637,274.5C 635.667,276.5 634,278.167 632,279.5C 631.667,279.167 631.333,278.833 631,278.5C 629.902,279.967 628.402,280.801 626.5,281C 626.167,282 625.833,283 625.5,284C 623.416,284.778 621.583,285.945 620,287.5C 618.16,286.167 617.66,286.334 618.5,288C 614.996,288.836 612.163,290.67 610,293.5C 609.667,293.167 609.333,292.833 609,292.5C 608.691,293.766 608.191,294.933 607.5,296C 609.692,296.926 611.692,298.093 613.5,299.5C 616.646,301.575 619.979,303.408 623.5,305C 622.906,305.464 622.239,305.631 621.5,305.5C 615.332,302.92 609.665,299.586 604.5,295.5C 603.351,293.851 602.018,292.351 600.5,291C 601.909,289.731 603.909,288.398 606.5,287C 607.893,285.829 608.727,284.329 609,282.5C 609.333,283.167 609.667,283.833 610,284.5C 611.113,283.24 611.28,282.073 610.5,281C 612.402,280.801 613.902,279.967 615,278.5C 615.333,278.833 615.667,279.167 616,279.5C 616.333,278.5 616.667,277.5 617,276.5C 617.333,276.833 617.667,277.167 618,277.5C 622.679,272.822 627.679,268.489 633,264.5C 633.333,265.167 633.667,265.833 634,266.5C 636.209,262.665 639.376,261.165 643.5,262C 644.252,261.329 644.586,260.496 644.5,259.5 Z"/></g>
<g><path style="opacity:1" fill="#4bcafa" d="M 624.5,248.5 C 630.76,251.44 636.76,254.774 642.5,258.5C 639.016,257.437 635.516,256.437 632,255.5C 631,256.833 630,258.167 629,259.5C 628.586,259.043 628.086,258.709 627.5,258.5C 624.327,260.283 620.994,261.783 617.5,263C 615.097,265.614 612.597,268.114 610,270.5C 609,270.5 608,270.5 607,270.5C 605.677,273.965 604.177,277.299 602.5,280.5C 600.549,280.227 599.049,280.893 598,282.5C 596.271,280.566 594.271,280.566 592,282.5C 591.086,281.346 590.253,281.513 589.5,283C 590.38,284.356 590.714,285.856 590.5,287.5C 593.005,287.98 595.338,288.98 597.5,290.5C 598.298,290.957 598.631,291.624 598.5,292.5C 592.835,290.003 587.502,287.003 582.5,283.5C 583.738,283.19 583.738,282.69 582.5,282C 579.622,280.401 576.956,278.567 574.5,276.5C 575.85,275.05 577.516,274.383 579.5,274.5C 579.5,273.5 579.5,272.5 579.5,271.5C 583.925,272.695 588.091,272.695 592,271.5C 593.667,270.167 595.333,268.833 597,267.5C 599.391,268.602 599.891,267.936 598.5,265.5C 604.558,258.944 610.725,252.61 617,246.5C 619.472,247.322 621.972,247.989 624.5,248.5 Z"/></g>
<g><path style="opacity:1" fill="#4db8fb" d="M 662.5,271.5 C 660.46,271.564 658.127,271.731 655.5,272C 653.694,273.806 651.86,275.64 650,277.5C 649.667,277.167 649.333,276.833 649,276.5C 647.039,278.974 644.706,280.974 642,282.5C 641.667,282.167 641.333,281.833 641,281.5C 637.289,286.18 633.622,290.18 630,293.5C 629.439,292.978 628.772,292.645 628,292.5C 626.112,293.777 624.112,294.777 622,295.5C 621.667,295.167 621.333,294.833 621,294.5C 619.117,297.237 616.617,298.904 613.5,299.5C 611.692,298.093 609.692,296.926 607.5,296C 608.191,294.933 608.691,293.766 609,292.5C 609.333,292.833 609.667,293.167 610,293.5C 612.163,290.67 614.996,288.836 618.5,288C 617.66,286.334 618.16,286.167 620,287.5C 621.583,285.945 623.416,284.778 625.5,284C 625.833,283 626.167,282 626.5,281C 628.402,280.801 629.902,279.967 631,278.5C 631.333,278.833 631.667,279.167 632,279.5C 634,278.167 635.667,276.5 637,274.5C 637.333,274.833 637.667,275.167 638,275.5C 639.473,271.659 642.306,268.493 646.5,266C 644.099,265.195 644.266,264.362 647,263.5C 651.844,266.838 657.01,269.505 662.5,271.5 Z"/></g>
<g><path style="opacity:1" fill="#171025" d="M 515.5,245.5 C 522.969,250.071 530.636,254.404 538.5,258.5C 543.474,261.991 548.808,264.991 554.5,267.5C 559.474,270.991 564.808,273.991 570.5,276.5C 574.136,279.323 578.136,281.656 582.5,283.5C 587.502,287.003 592.835,290.003 598.5,292.5C 600.181,294.008 602.181,295.008 604.5,295.5C 609.665,299.586 615.332,302.92 621.5,305.5C 629.341,310.923 637.674,315.59 646.5,319.5C 650.136,322.323 654.136,324.656 658.5,326.5C 659.833,327.5 661.167,328.5 662.5,329.5C 660.856,329.286 659.356,329.62 658,330.5C 657.626,329.584 657.126,328.75 656.5,328C 652.106,328.141 647.772,329.641 643.5,332.5C 641.972,331.139 640.305,329.972 638.5,329C 628.471,328.308 618.471,327.474 608.5,326.5C 608.822,324.278 608.155,322.444 606.5,321C 610.421,318.611 614.421,316.444 618.5,314.5C 617.167,312.5 615.833,310.5 614.5,308.5C 615.854,306.538 615.187,305.538 612.5,305.5C 606.376,305.757 600.543,307.09 595,309.5C 592.339,307.248 589.339,305.582 586,304.5C 583.362,305.917 581.528,308.084 580.5,311C 577.823,311.249 575.49,312.249 573.5,314C 570.5,314.333 567.5,314.667 564.5,315C 562.244,317.578 559.744,317.412 557,314.5C 556.333,315.833 555.667,315.833 555,314.5C 554.077,315.759 553.243,317.092 552.5,318.5C 550.827,316.914 548.827,316.247 546.5,316.5C 542.473,314.487 538.473,312.487 534.5,310.5C 533.71,309.599 532.71,308.932 531.5,308.5C 525.861,305.345 520.194,302.179 514.5,299C 512.833,298.333 511.167,298.333 509.5,299C 495.918,306.707 482.418,314.54 469,322.5C 468.312,323.332 468.479,323.998 469.5,324.5C 483.032,332.432 496.699,340.099 510.5,347.5C 516.634,351.404 522.968,355.071 529.5,358.5C 534.131,361.151 538.798,363.818 543.5,366.5C 545.663,368.083 547.996,369.416 550.5,370.5C 553.24,372.56 556.24,374.226 559.5,375.5C 566.496,380.334 573.829,384.667 581.5,388.5C 582.965,389.737 584.632,390.737 586.5,391.5C 594.664,396.417 602.997,401.083 611.5,405.5C 611.811,406.478 612.478,407.145 613.5,407.5C 614.499,418.146 614.832,428.813 614.5,439.5C 604.569,444.776 594.902,450.442 585.5,456.5C 568.061,465.721 550.727,475.221 533.5,485C 531.907,485.949 530.574,487.115 529.5,488.5C 523.385,490.723 517.719,493.723 512.5,497.5C 505.833,494.167 499.167,490.833 492.5,487.5C 489.322,484.742 485.655,482.742 481.5,481.5C 476.684,477.707 471.35,474.707 465.5,472.5C 461.493,468.826 456.827,466.159 451.5,464.5C 449.664,462.412 447.331,461.079 444.5,460.5C 439.684,456.707 434.35,453.707 428.5,451.5C 424.772,448.441 420.772,445.774 416.5,443.5C 417.239,443.631 417.906,443.464 418.5,443C 413.014,441.739 412.348,439.406 416.5,436C 415.167,435 415.167,434 416.5,433C 422.526,433.761 428.192,434.928 433.5,436.5C 434.326,433.757 435.659,431.257 437.5,429C 436.43,426.258 434.93,423.758 433,421.5C 432.184,418.017 431.851,414.684 432,411.5C 431.072,409.665 429.906,409.332 428.5,410.5C 427.094,409.049 425.594,407.716 424,406.5C 423.667,406.833 423.333,407.167 423,407.5C 421.548,403.198 419.048,399.531 415.5,396.5C 416.811,395.742 417.311,394.742 417,393.5C 416.667,393.833 416.333,394.167 416,394.5C 414.789,390.538 412.789,389.871 410,392.5C 409.309,390.109 408.309,390.109 407,392.5C 403.084,391.694 399.084,391.694 395,392.5C 390.968,392.533 387.135,391.7 383.5,390C 381.77,386.959 380.77,383.959 380.5,381C 381.167,380.333 381.833,379.667 382.5,379C 379.751,377.877 377.251,376.377 375,374.5C 374.805,372.793 374.805,371.126 375,369.5C 370.411,366.026 365.411,364.693 360,365.5C 359,363.833 358,362.167 357,360.5C 356.086,361.654 355.253,361.487 354.5,360C 354.42,356.959 354.753,353.793 355.5,350.5C 357.109,353.53 359.109,356.363 361.5,359C 366.035,361.767 370.701,364.267 375.5,366.5C 384.554,372.197 393.887,377.531 403.5,382.5C 407.887,385.531 412.554,388.197 417.5,390.5C 424.997,395.083 432.663,399.416 440.5,403.5C 444.136,406.323 448.136,408.656 452.5,410.5C 455.331,412.417 458.331,414.083 461.5,415.5C 465.136,418.323 469.136,420.656 473.5,422.5C 477.887,425.531 482.554,428.197 487.5,430.5C 495.539,435.273 503.705,439.94 512,444.5C 519.301,440.689 526.468,436.689 533.5,432.5C 542.202,427.485 550.869,422.485 559.5,417.5C 561.233,416.992 561.566,416.159 560.5,415C 552.604,410.553 544.604,406.386 536.5,402.5C 529.328,397.411 521.661,393.077 513.5,389.5C 505.368,384.263 497.035,379.263 488.5,374.5C 480.483,370.138 472.483,365.805 464.5,361.5C 460.167,358.331 455.5,355.664 450.5,353.5C 439.031,346.596 427.365,339.929 415.5,333.5C 414.85,333.196 414.183,332.863 413.5,332.5C 412.501,321.854 412.168,311.187 412.5,300.5C 445.601,281.78 478.601,262.78 511.5,243.5C 512.622,244.63 513.956,245.297 515.5,245.5 Z"/></g>
<g><path style="opacity:1" fill="#4eaffa" d="M 662.5,271.5 C 663.794,272.29 664.961,273.29 666,274.5C 666.399,274.272 666.565,273.938 666.5,273.5C 667.558,274.6 668.392,275.934 669,277.5C 669.5,288.495 669.667,299.495 669.5,310.5C 668.566,309.432 668.232,308.099 668.5,306.5C 668.666,298.16 668.5,289.827 668,281.5C 667.689,283.556 667.189,285.556 666.5,287.5C 665.726,288.711 664.893,288.711 664,287.5C 663.598,288.872 663.098,290.205 662.5,291.5C 655.195,297.63 647.029,302.296 638,305.5C 637.586,305.043 637.086,304.709 636.5,304.5C 634.551,306.077 632.551,307.577 630.5,309C 636.026,311.926 641.359,315.093 646.5,318.5C 646.5,318.833 646.5,319.167 646.5,319.5C 637.674,315.59 629.341,310.923 621.5,305.5C 622.239,305.631 622.906,305.464 623.5,305C 619.979,303.408 616.646,301.575 613.5,299.5C 616.617,298.904 619.117,297.237 621,294.5C 621.333,294.833 621.667,295.167 622,295.5C 624.112,294.777 626.112,293.777 628,292.5C 628.772,292.645 629.439,292.978 630,293.5C 633.622,290.18 637.289,286.18 641,281.5C 641.333,281.833 641.667,282.167 642,282.5C 644.706,280.974 647.039,278.974 649,276.5C 649.333,276.833 649.667,277.167 650,277.5C 651.86,275.64 653.694,273.806 655.5,272C 658.127,271.731 660.46,271.564 662.5,271.5 Z"/></g>
<g><path style="opacity:1" fill="#4fa3fb" d="M 668.5,306.5 C 667.71,307.609 667.21,308.942 667,310.5C 665.437,307.956 663.937,307.956 662.5,310.5C 659.966,310.434 657.466,310.434 655,310.5C 653.566,312.136 651.733,313.136 649.5,313.5C 648.719,314.729 648.219,316.062 648,317.5C 646.957,313.774 646.457,314.107 646.5,318.5C 641.359,315.093 636.026,311.926 630.5,309C 632.551,307.577 634.551,306.077 636.5,304.5C 637.086,304.709 637.586,305.043 638,305.5C 647.029,302.296 655.195,297.63 662.5,291.5C 663.098,290.205 663.598,288.872 664,287.5C 664.893,288.711 665.726,288.711 666.5,287.5C 667.189,285.556 667.689,283.556 668,281.5C 668.5,289.827 668.666,298.16 668.5,306.5 Z"/></g>
<g><path style="opacity:1" fill="#47eafb" d="M 410.5,315.5 C 409.837,317.042 409.17,318.709 408.5,320.5C 407.158,319.098 406.324,319.431 406,321.5C 405.692,320.692 405.192,320.025 404.5,319.5C 402.183,320.82 400.183,322.486 398.5,324.5C 397.284,323.998 396.117,323.665 395,323.5C 391.898,327.237 388.398,329.737 384.5,331C 382.875,331.853 382.542,332.853 383.5,334C 382.069,334.465 380.903,335.299 380,336.5C 379.667,336.167 379.333,335.833 379,335.5C 377.68,337.817 376.014,339.817 374,341.5C 373.667,341.167 373.333,340.833 373,340.5C 371.333,341.833 369.667,343.167 368,344.5C 365.667,344.5 363.333,344.5 361,344.5C 359.446,346.927 358.279,346.927 357.5,344.5C 358.378,340.897 359.711,337.397 361.5,334C 367.234,330.28 372.567,325.947 377.5,321C 382.451,317.691 387.784,315.191 393.5,313.5C 394.711,312.726 394.711,311.893 393.5,311C 394.449,310.383 395.282,310.549 396,311.5C 396.667,310.833 397.333,310.167 398,309.5C 399.398,310.051 400.732,310.384 402,310.5C 402.233,308.22 403.066,306.22 404.5,304.5C 405.638,311.073 406.472,311.073 407,304.5C 407.333,305.167 407.667,305.833 408,306.5C 409.163,304.715 409.83,302.715 410,300.5C 410.499,305.489 410.666,310.489 410.5,315.5 Z"/></g>
<g><path style="opacity:1" fill="#4ccff8" d="M 531.5,308.5 C 529.561,308.561 527.561,308.561 525.5,308.5C 521.837,305.69 519.504,306.69 518.5,311.5C 517.033,311.277 515.533,310.944 514,310.5C 513.027,312.392 512.36,314.392 512,316.5C 511.667,316.167 511.333,315.833 511,315.5C 508.308,319.191 504.975,322.191 501,324.5C 500.275,322.842 499.108,322.342 497.5,323C 494.379,325.715 490.879,327.882 487,329.5C 486.555,331.594 487.388,333.094 489.5,334C 494.527,336.845 499.527,339.679 504.5,342.5C 506.938,344.267 509.605,345.601 512.5,346.5C 512.158,347.338 511.492,347.672 510.5,347.5C 496.699,340.099 483.032,332.432 469.5,324.5C 468.479,323.998 468.312,323.332 469,322.5C 482.418,314.54 495.918,306.707 509.5,299C 511.167,298.333 512.833,298.333 514.5,299C 520.194,302.179 525.861,305.345 531.5,308.5 Z"/></g>
<g><path style="opacity:1" fill="#4e96f8" d="M 668.5,306.5 C 668.232,308.099 668.566,309.432 669.5,310.5C 669.5,315.833 669.5,321.167 669.5,326.5C 668.683,324.031 668.183,321.365 668,318.5C 667.51,319.793 667.343,321.127 667.5,322.5C 664.482,322.335 661.482,322.502 658.5,323C 658.402,324.285 658.402,325.451 658.5,326.5C 654.136,324.656 650.136,322.323 646.5,319.5C 646.5,319.167 646.5,318.833 646.5,318.5C 646.457,314.107 646.957,313.774 648,317.5C 648.219,316.062 648.719,314.729 649.5,313.5C 651.733,313.136 653.566,312.136 655,310.5C 657.466,310.434 659.966,310.434 662.5,310.5C 663.937,307.956 665.437,307.956 667,310.5C 667.21,308.942 667.71,307.609 668.5,306.5 Z"/></g>
<g><path style="opacity:1" fill="#4dcbfb" d="M 531.5,308.5 C 532.71,308.932 533.71,309.599 534.5,310.5C 532.107,311.21 529.607,311.877 527,312.5C 523.104,320.321 518.104,326.654 512,331.5C 511.667,331.167 511.333,330.833 511,330.5C 507.876,334.44 505.709,338.44 504.5,342.5C 499.527,339.679 494.527,336.845 489.5,334C 487.388,333.094 486.555,331.594 487,329.5C 490.879,327.882 494.379,325.715 497.5,323C 499.108,322.342 500.275,322.842 501,324.5C 504.975,322.191 508.308,319.191 511,315.5C 511.333,315.833 511.667,316.167 512,316.5C 512.36,314.392 513.027,312.392 514,310.5C 515.533,310.944 517.033,311.277 518.5,311.5C 519.504,306.69 521.837,305.69 525.5,308.5C 527.561,308.561 529.561,308.561 531.5,308.5 Z"/></g>
<g><path style="opacity:1" fill="#4dbbfa" d="M 563.5,326.5 C 570.698,330.262 577.698,334.262 584.5,338.5C 581.62,338.06 578.954,337.06 576.5,335.5C 572.77,332.476 568.437,330.809 563.5,330.5C 562.167,331.833 560.833,333.167 559.5,334.5C 558.094,333.332 556.928,333.665 556,335.5C 553.006,334.11 551.006,335.11 550,338.5C 549.667,337.833 549.333,337.167 549,336.5C 542.101,340.937 535.601,345.937 529.5,351.5C 526.662,354.551 527.329,356.718 531.5,358C 530.906,358.464 530.239,358.631 529.5,358.5C 522.968,355.071 516.634,351.404 510.5,347.5C 511.492,347.672 512.158,347.338 512.5,346.5C 517.104,341.057 521.938,335.724 527,330.5C 527.333,330.833 527.667,331.167 528,331.5C 529.02,328.276 530.854,326.609 533.5,326.5C 534.615,323.888 536.282,321.721 538.5,320C 537.833,319.667 537.167,319.333 536.5,319C 540.869,318.575 545.203,318.908 549.5,320C 553.833,322.5 558.167,325 562.5,327.5C 563.107,327.376 563.44,327.043 563.5,326.5 Z"/></g>
<g><path style="opacity:1" fill="#4683f0" d="M 669.5,326.5 C 669.799,328.604 669.466,330.604 668.5,332.5C 666.473,331.487 664.473,330.487 662.5,329.5C 661.167,328.5 659.833,327.5 658.5,326.5C 658.402,325.451 658.402,324.285 658.5,323C 661.482,322.502 664.482,322.335 667.5,322.5C 667.343,321.127 667.51,319.793 668,318.5C 668.183,321.365 668.683,324.031 669.5,326.5 Z"/></g>
<g><path style="opacity:1" fill="#48e0f7" d="M 412.5,300.5 C 412.168,311.187 412.501,321.854 413.5,332.5C 414.183,332.863 414.85,333.196 415.5,333.5C 415.5,333.833 415.5,334.167 415.5,334.5C 413.173,334.335 411.007,333.669 409,332.5C 405.19,333.824 401.524,335.491 398,337.5C 397.667,337.167 397.333,336.833 397,336.5C 396.276,338.959 394.943,339.959 393,339.5C 390.784,341.674 388.451,343.674 386,345.5C 384.334,344.66 384.167,345.16 385.5,347C 384.551,347.617 383.718,347.451 383,346.5C 380.231,349.188 378.065,352.354 376.5,356C 375.584,356.374 374.75,356.874 374,357.5C 372.374,357.146 370.541,357.146 368.5,357.5C 368.5,358.5 368.5,359.5 368.5,360.5C 369.552,360.351 370.552,360.517 371.5,361C 372.5,363.333 374.167,365 376.5,366C 376.272,366.399 375.938,366.565 375.5,366.5C 370.701,364.267 366.035,361.767 361.5,359C 359.109,356.363 357.109,353.53 355.5,350.5C 355.5,349.167 355.5,347.833 355.5,346.5C 356.338,346.158 356.672,345.492 356.5,344.5C 356.833,344.5 357.167,344.5 357.5,344.5C 358.279,346.927 359.446,346.927 361,344.5C 363.333,344.5 365.667,344.5 368,344.5C 369.667,343.167 371.333,341.833 373,340.5C 373.333,340.833 373.667,341.167 374,341.5C 376.014,339.817 377.68,337.817 379,335.5C 379.333,335.833 379.667,336.167 380,336.5C 380.903,335.299 382.069,334.465 383.5,334C 382.542,332.853 382.875,331.853 384.5,331C 388.398,329.737 391.898,327.237 395,323.5C 396.117,323.665 397.284,323.998 398.5,324.5C 400.183,322.486 402.183,320.82 404.5,319.5C 405.192,320.025 405.692,320.692 406,321.5C 406.324,319.431 407.158,319.098 408.5,320.5C 409.17,318.709 409.837,317.042 410.5,315.5C 410.334,320.844 410.501,326.177 411,331.5C 411.17,320.992 411.67,310.659 412.5,300.5 Z"/></g>
<g><path style="opacity:1" fill="#4dc3fa" d="M 534.5,310.5 C 538.473,312.487 542.473,314.487 546.5,316.5C 551.967,320.071 557.633,323.404 563.5,326.5C 563.44,327.043 563.107,327.376 562.5,327.5C 558.167,325 553.833,322.5 549.5,320C 545.203,318.908 540.869,318.575 536.5,319C 537.167,319.333 537.833,319.667 538.5,320C 536.282,321.721 534.615,323.888 533.5,326.5C 530.854,326.609 529.02,328.276 528,331.5C 527.667,331.167 527.333,330.833 527,330.5C 521.938,335.724 517.104,341.057 512.5,346.5C 509.605,345.601 506.938,344.267 504.5,342.5C 505.709,338.44 507.876,334.44 511,330.5C 511.333,330.833 511.667,331.167 512,331.5C 518.104,326.654 523.104,320.321 527,312.5C 529.607,311.877 532.107,311.21 534.5,310.5 Z"/></g>
<g><path style="opacity:1" fill="#4eb1fa" d="M 576.5,335.5 C 574.864,336.246 573.197,335.912 571.5,334.5C 570.293,337.612 568.293,340.112 565.5,342C 561.895,342.449 558.562,343.616 555.5,345.5C 551.662,348.508 548.495,351.508 546,354.5C 545.667,353.833 545.333,353.167 545,352.5C 544.751,353.624 544.251,354.624 543.5,355.5C 539.357,353.369 536.024,354.536 533.5,359C 535.587,359.792 537.421,360.959 539,362.5C 539.667,361.833 540.333,361.167 541,360.5C 541.293,362.925 542.459,364.758 544.5,366C 544.272,366.399 543.938,366.565 543.5,366.5C 538.798,363.818 534.131,361.151 529.5,358.5C 530.239,358.631 530.906,358.464 531.5,358C 527.329,356.718 526.662,354.551 529.5,351.5C 535.601,345.937 542.101,340.937 549,336.5C 549.333,337.167 549.667,337.833 550,338.5C 551.006,335.11 553.006,334.11 556,335.5C 556.928,333.665 558.094,333.332 559.5,334.5C 560.833,333.167 562.167,331.833 563.5,330.5C 568.437,330.809 572.77,332.476 576.5,335.5 Z"/></g>
<g><path style="opacity:1" fill="#49dcf9" d="M 415.5,334.5 C 416.203,336.034 416.036,337.701 415,339.5C 413.899,337.606 412.566,336.939 411,337.5C 407.015,341.391 403.015,344.391 399,346.5C 398.641,349.544 397.974,349.878 397,347.5C 394.67,350.182 394.17,349.849 395.5,346.5C 393.877,345.524 392.543,346.024 391.5,348C 392.167,348.333 392.833,348.667 393.5,349C 392.167,349.667 392.167,350.333 393.5,351C 391.699,351.317 391.366,351.984 392.5,353C 391.981,357.365 389.481,359.865 385,360.5C 384.228,360.355 383.561,360.022 383,359.5C 380.943,361.269 379.11,363.269 377.5,365.5C 381.689,367.599 385.689,369.933 389.5,372.5C 393.833,375.669 398.5,378.336 403.5,380.5C 404.506,381.396 404.506,382.062 403.5,382.5C 393.887,377.531 384.554,372.197 375.5,366.5C 375.938,366.565 376.272,366.399 376.5,366C 374.167,365 372.5,363.333 371.5,361C 370.552,360.517 369.552,360.351 368.5,360.5C 368.5,359.5 368.5,358.5 368.5,357.5C 370.541,357.146 372.374,357.146 374,357.5C 374.75,356.874 375.584,356.374 376.5,356C 378.065,352.354 380.231,349.188 383,346.5C 383.718,347.451 384.551,347.617 385.5,347C 384.167,345.16 384.334,344.66 386,345.5C 388.451,343.674 390.784,341.674 393,339.5C 394.943,339.959 396.276,338.959 397,336.5C 397.333,336.833 397.667,337.167 398,337.5C 401.524,335.491 405.19,333.824 409,332.5C 411.007,333.669 413.173,334.335 415.5,334.5 Z"/></g>
<g><path style="opacity:1" fill="#50abfa" d="M 576.5,335.5 C 578.954,337.06 581.62,338.06 584.5,338.5C 587.54,339.68 590.206,341.347 592.5,343.5C 589.404,342.453 586.404,341.12 583.5,339.5C 582.268,340.145 580.935,340.311 579.5,340C 576.5,343.333 573.5,346.667 570.5,350C 567.17,351.661 563.837,353.328 560.5,355C 560.833,355.333 561.167,355.667 561.5,356C 560.5,356.333 559.5,356.667 558.5,357C 559.641,357.741 559.641,358.575 558.5,359.5C 556.704,360.141 555.204,361.141 554,362.5C 553.667,362.167 553.333,361.833 553,361.5C 552.64,363.421 551.806,365.088 550.5,366.5C 551.04,367.748 551.707,368.915 552.5,370C 551.906,370.464 551.239,370.631 550.5,370.5C 547.996,369.416 545.663,368.083 543.5,366.5C 543.938,366.565 544.272,366.399 544.5,366C 542.459,364.758 541.293,362.925 541,360.5C 540.333,361.167 539.667,361.833 539,362.5C 537.421,360.959 535.587,359.792 533.5,359C 536.024,354.536 539.357,353.369 543.5,355.5C 544.251,354.624 544.751,353.624 545,352.5C 545.333,353.167 545.667,353.833 546,354.5C 548.495,351.508 551.662,348.508 555.5,345.5C 558.562,343.616 561.895,342.449 565.5,342C 568.293,340.112 570.293,337.612 571.5,334.5C 573.197,335.912 574.864,336.246 576.5,335.5 Z"/></g>
<g><path style="opacity:1" fill="#4dd0fa" d="M 443.5,351.5 C 441.326,351.08 439.326,351.08 437.5,351.5C 435.618,350.907 433.785,350.24 432,349.5C 431.187,351.436 430.687,353.436 430.5,355.5C 428.857,355.52 427.524,354.853 426.5,353.5C 424.35,355.149 422.35,356.982 420.5,359C 419.551,359.617 418.718,359.451 418,358.5C 415.819,360.406 413.986,362.572 412.5,365C 413.654,365.914 413.487,366.747 412,367.5C 411.667,367.167 411.333,366.833 411,366.5C 409.192,369.922 406.358,374.089 402.5,379C 403.056,379.383 403.389,379.883 403.5,380.5C 398.5,378.336 393.833,375.669 389.5,372.5C 391.795,369.703 394.295,367.036 397,364.5C 397.333,364.833 397.667,365.167 398,365.5C 402.678,359.823 408.011,354.823 414,350.5C 415.167,349 416.333,347.5 417.5,346C 417.167,345.667 416.833,345.333 416.5,345C 418.519,344.55 420.352,343.717 422,342.5C 430.268,342.951 437.435,345.951 443.5,351.5 Z"/></g>
<g><path style="opacity:1" fill="#50a0fa" d="M 592.5,343.5 C 600.661,347.077 608.328,351.411 615.5,356.5C 612.492,355.58 609.659,354.246 607,352.5C 606.576,356.19 605.742,356.357 604.5,353C 602.546,353.453 600.713,353.62 599,353.5C 598.667,352.833 598.333,352.167 598,351.5C 596.758,353.541 594.925,354.707 592.5,355C 590.606,356.101 589.939,357.434 590.5,359C 586.007,361.691 581.507,363.524 577,364.5C 572.177,365.943 567.343,367.61 562.5,369.5C 560.736,371.13 559.736,373.13 559.5,375.5C 556.24,374.226 553.24,372.56 550.5,370.5C 551.239,370.631 551.906,370.464 552.5,370C 551.707,368.915 551.04,367.748 550.5,366.5C 551.806,365.088 552.64,363.421 553,361.5C 553.333,361.833 553.667,362.167 554,362.5C 555.204,361.141 556.704,360.141 558.5,359.5C 559.641,358.575 559.641,357.741 558.5,357C 559.5,356.667 560.5,356.333 561.5,356C 561.167,355.667 560.833,355.333 560.5,355C 563.837,353.328 567.17,351.661 570.5,350C 573.5,346.667 576.5,343.333 579.5,340C 580.935,340.311 582.268,340.145 583.5,339.5C 586.404,341.12 589.404,342.453 592.5,343.5 Z"/></g>
<g><path style="opacity:1" fill="#4dc8fa" d="M 443.5,351.5 C 445.84,352.086 448.007,353.086 450,354.5C 450.399,354.272 450.565,353.938 450.5,353.5C 455.5,355.664 460.167,358.331 464.5,361.5C 461.715,360.694 458.881,360.028 456,359.5C 452.694,360.053 450.694,362.053 450,365.5C 449.667,365.167 449.333,364.833 449,364.5C 444.955,367.366 441.288,370.699 438,374.5C 437.667,374.167 437.333,373.833 437,373.5C 432.107,375.89 427.607,378.89 423.5,382.5C 421.5,383.167 419.5,383.833 417.5,384.5C 415.95,387.129 416.616,388.963 419.5,390C 418.906,390.464 418.239,390.631 417.5,390.5C 412.554,388.197 407.887,385.531 403.5,382.5C 404.506,382.062 404.506,381.396 403.5,380.5C 403.389,379.883 403.056,379.383 402.5,379C 406.358,374.089 409.192,369.922 411,366.5C 411.333,366.833 411.667,367.167 412,367.5C 413.487,366.747 413.654,365.914 412.5,365C 413.986,362.572 415.819,360.406 418,358.5C 418.718,359.451 419.551,359.617 420.5,359C 422.35,356.982 424.35,355.149 426.5,353.5C 427.524,354.853 428.857,355.52 430.5,355.5C 430.687,353.436 431.187,351.436 432,349.5C 433.785,350.24 435.618,350.907 437.5,351.5C 439.326,351.08 441.326,351.08 443.5,351.5 Z"/></g>
<g><path style="opacity:1" fill="#4bd7f9" d="M 415.5,333.5 C 427.365,339.929 439.031,346.596 450.5,353.5C 450.565,353.938 450.399,354.272 450,354.5C 448.007,353.086 445.84,352.086 443.5,351.5C 437.435,345.951 430.268,342.951 422,342.5C 420.352,343.717 418.519,344.55 416.5,345C 416.833,345.333 417.167,345.667 417.5,346C 416.333,347.5 415.167,349 414,350.5C 408.011,354.823 402.678,359.823 398,365.5C 397.667,365.167 397.333,364.833 397,364.5C 394.295,367.036 391.795,369.703 389.5,372.5C 385.689,369.933 381.689,367.599 377.5,365.5C 379.11,363.269 380.943,361.269 383,359.5C 383.561,360.022 384.228,360.355 385,360.5C 389.481,359.865 391.981,357.365 392.5,353C 391.366,351.984 391.699,351.317 393.5,351C 392.167,350.333 392.167,349.667 393.5,349C 392.833,348.667 392.167,348.333 391.5,348C 392.543,346.024 393.877,345.524 395.5,346.5C 394.17,349.849 394.67,350.182 397,347.5C 397.974,349.878 398.641,349.544 399,346.5C 403.015,344.391 407.015,341.391 411,337.5C 412.566,336.939 413.899,337.606 415,339.5C 416.036,337.701 416.203,336.034 415.5,334.5C 415.5,334.167 415.5,333.833 415.5,333.5 Z"/></g>
<g><path style="opacity:1" fill="#4fbcf9" d="M 464.5,361.5 C 472.483,365.805 480.483,370.138 488.5,374.5C 488.44,375.043 488.107,375.376 487.5,375.5C 484.78,374.14 482.114,372.807 479.5,371.5C 477.231,370.024 474.898,368.524 472.5,367C 468.585,366.985 464.918,366.152 461.5,364.5C 451.224,372.18 442.057,380.847 434,390.5C 433,389.167 432,389.167 431,390.5C 429.087,387.965 427.92,388.465 427.5,392C 427.862,393.225 428.362,394.391 429,395.5C 432.808,397.653 436.642,399.653 440.5,401.5C 440.918,402.222 441.584,402.722 442.5,403C 441.906,403.464 441.239,403.631 440.5,403.5C 432.663,399.416 424.997,395.083 417.5,390.5C 418.239,390.631 418.906,390.464 419.5,390C 416.616,388.963 415.95,387.129 417.5,384.5C 419.5,383.833 421.5,383.167 423.5,382.5C 427.607,378.89 432.107,375.89 437,373.5C 437.333,373.833 437.667,374.167 438,374.5C 441.288,370.699 444.955,367.366 449,364.5C 449.333,364.833 449.667,365.167 450,365.5C 450.694,362.053 452.694,360.053 456,359.5C 458.881,360.028 461.715,360.694 464.5,361.5 Z"/></g>
<g><path style="opacity:1" fill="#5098f9" d="M 615.5,356.5 C 620.5,358.664 625.167,361.331 629.5,364.5C 624.661,362.83 620.161,360.497 616,357.5C 614.667,358.833 613.333,358.833 612,357.5C 610.491,358.09 608.991,358.756 607.5,359.5C 607.167,360.833 606.833,362.167 606.5,363.5C 604.234,364.314 601.9,364.814 599.5,365C 599.833,365.333 600.167,365.667 600.5,366C 599.5,366.333 598.5,366.667 597.5,367C 598.34,368.666 597.84,368.833 596,367.5C 594.833,368.667 593.667,369.833 592.5,371C 593.34,372.666 592.84,372.833 591,371.5C 590.71,373.044 590.044,374.377 589,375.5C 581.691,374.216 574.358,374.216 567,375.5C 566.316,376.784 566.483,377.951 567.5,379C 572.818,381.471 577.485,384.637 581.5,388.5C 573.829,384.667 566.496,380.334 559.5,375.5C 559.736,373.13 560.736,371.13 562.5,369.5C 567.343,367.61 572.177,365.943 577,364.5C 581.507,363.524 586.007,361.691 590.5,359C 589.939,357.434 590.606,356.101 592.5,355C 594.925,354.707 596.758,353.541 598,351.5C 598.333,352.167 598.667,352.833 599,353.5C 600.713,353.62 602.546,353.453 604.5,353C 605.742,356.357 606.576,356.19 607,352.5C 609.659,354.246 612.492,355.58 615.5,356.5 Z"/></g>
<g><path style="opacity:1" fill="#50b8fb" d="M 479.5,371.5 C 477.932,371.641 476.265,371.974 474.5,372.5C 471.945,369.749 470.945,370.416 471.5,374.5C 467.757,375.135 464.424,376.635 461.5,379C 461.833,379.333 462.167,379.667 462.5,380C 461.5,380.333 460.5,380.667 459.5,381C 460.34,382.666 459.84,382.833 458,381.5C 457,383.167 455.667,384.5 454,385.5C 453.086,384.346 452.253,384.513 451.5,386C 452.258,387.364 451.758,388.531 450,389.5C 449.667,389.167 449.333,388.833 449,388.5C 448.667,389.5 448.333,390.5 448,391.5C 447.667,391.167 447.333,390.833 447,390.5C 445.902,391.967 444.402,392.801 442.5,393C 443.167,393.333 443.833,393.667 444.5,394C 442.641,394.684 440.974,395.684 439.5,397C 439.912,398.564 440.245,400.064 440.5,401.5C 436.642,399.653 432.808,397.653 429,395.5C 428.362,394.391 427.862,393.225 427.5,392C 427.92,388.465 429.087,387.965 431,390.5C 432,389.167 433,389.167 434,390.5C 442.057,380.847 451.224,372.18 461.5,364.5C 464.918,366.152 468.585,366.985 472.5,367C 474.898,368.524 477.231,370.024 479.5,371.5 Z"/></g>
<g><path style="opacity:1" fill="#5089f9" d="M 636.5,368.5 C 642.35,370.707 647.684,373.707 652.5,377.5C 649.965,376.651 647.465,375.651 645,374.5C 642.202,374.858 639.536,374.858 637,374.5C 634.212,377.776 631.045,379.776 627.5,380.5C 626.289,381.274 626.289,382.107 627.5,383C 625.152,383.346 623.319,384.513 622,386.5C 621.667,386.167 621.333,385.833 621,385.5C 618.895,389.758 615.395,391.425 610.5,390.5C 610.649,391.552 610.483,392.552 610,393.5C 608.575,394.079 606.908,394.079 605,393.5C 603.513,394.253 603.346,395.086 604.5,396C 603.216,396.684 602.049,396.517 601,395.5C 600.833,396 600.667,396.5 600.5,397C 604.204,399.844 607.871,402.678 611.5,405.5C 602.997,401.083 594.664,396.417 586.5,391.5C 586.238,389.436 585.071,388.103 583,387.5C 582.386,385.687 582.719,385.353 584,386.5C 587.044,383.721 590.544,381.555 594.5,380C 593.346,379.086 593.513,378.253 595,377.5C 595.974,379.878 596.641,379.544 597,376.5C 597.388,377.428 598.055,378.095 599,378.5C 601.339,376.828 603.339,374.828 605,372.5C 607.289,373.022 609.456,372.355 611.5,370.5C 612.086,370.709 612.586,371.043 613,371.5C 615.055,369.445 616.721,367.112 618,364.5C 618.5,365 619,365.5 619.5,366C 625.339,366.048 631.006,366.881 636.5,368.5 Z"/></g>
<g><path style="opacity:1" fill="#50b1fa" d="M 479.5,371.5 C 482.114,372.807 484.78,374.14 487.5,375.5C 488.107,375.376 488.44,375.043 488.5,374.5C 497.035,379.263 505.368,384.263 513.5,389.5C 511.16,388.914 508.993,387.914 507,386.5C 506.667,386.833 506.333,387.167 506,387.5C 505.578,385.574 504.411,384.574 502.5,384.5C 497.029,379.763 490.695,377.263 483.5,377C 483.888,378.808 483.888,380.475 483.5,382C 479.398,384.031 475.565,387.197 472,391.5C 469.46,390.124 467.46,390.79 466,393.5C 465.667,393.167 465.333,392.833 465,392.5C 464.935,394.883 464.102,395.55 462.5,394.5C 461.784,395.311 460.95,395.978 460,396.5C 458.989,396.108 458.489,395.441 458.5,394.5C 456.831,395.89 455.164,396.223 453.5,395.5C 451.831,398.924 449.331,401.59 446,403.5C 445.312,404.332 445.479,404.998 446.5,405.5C 448.968,406.803 451.301,408.303 453.5,410C 453.272,410.399 452.938,410.565 452.5,410.5C 448.136,408.656 444.136,406.323 440.5,403.5C 441.239,403.631 441.906,403.464 442.5,403C 441.584,402.722 440.918,402.222 440.5,401.5C 440.245,400.064 439.912,398.564 439.5,397C 440.974,395.684 442.641,394.684 444.5,394C 443.833,393.667 443.167,393.333 442.5,393C 444.402,392.801 445.902,391.967 447,390.5C 447.333,390.833 447.667,391.167 448,391.5C 448.333,390.5 448.667,389.5 449,388.5C 449.333,388.833 449.667,389.167 450,389.5C 451.758,388.531 452.258,387.364 451.5,386C 452.253,384.513 453.086,384.346 454,385.5C 455.667,384.5 457,383.167 458,381.5C 459.84,382.833 460.34,382.666 459.5,381C 460.5,380.667 461.5,380.333 462.5,380C 462.167,379.667 461.833,379.333 461.5,379C 464.424,376.635 467.757,375.135 471.5,374.5C 470.945,370.416 471.945,369.749 474.5,372.5C 476.265,371.974 477.932,371.641 479.5,371.5 Z"/></g>
<g><path style="opacity:1" fill="#5091fa" d="M 629.5,364.5 C 632.331,365.079 634.664,366.412 636.5,368.5C 631.006,366.881 625.339,366.048 619.5,366C 619,365.5 618.5,365 618,364.5C 616.721,367.112 615.055,369.445 613,371.5C 612.586,371.043 612.086,370.709 611.5,370.5C 609.456,372.355 607.289,373.022 605,372.5C 603.339,374.828 601.339,376.828 599,378.5C 598.055,378.095 597.388,377.428 597,376.5C 596.641,379.544 595.974,379.878 595,377.5C 593.513,378.253 593.346,379.086 594.5,380C 590.544,381.555 587.044,383.721 584,386.5C 582.719,385.353 582.386,385.687 583,387.5C 585.071,388.103 586.238,389.436 586.5,391.5C 584.632,390.737 582.965,389.737 581.5,388.5C 577.485,384.637 572.818,381.471 567.5,379C 566.483,377.951 566.316,376.784 567,375.5C 574.358,374.216 581.691,374.216 589,375.5C 590.044,374.377 590.71,373.044 591,371.5C 592.84,372.833 593.34,372.666 592.5,371C 593.667,369.833 594.833,368.667 596,367.5C 597.84,368.833 598.34,368.666 597.5,367C 598.5,366.667 599.5,366.333 600.5,366C 600.167,365.667 599.833,365.333 599.5,365C 601.9,364.814 604.234,364.314 606.5,363.5C 606.833,362.167 607.167,360.833 607.5,359.5C 608.991,358.756 610.491,358.09 612,357.5C 613.333,358.833 614.667,358.833 616,357.5C 620.161,360.497 624.661,362.83 629.5,364.5 Z"/></g>
<g><path style="opacity:1" fill="#51abfb" d="M 502.5,384.5 C 499.8,383.484 497.134,383.484 494.5,384.5C 493.289,385.274 493.289,386.107 494.5,387C 492.321,387.442 491.655,388.442 492.5,390C 490.939,390.318 489.772,391.151 489,392.5C 487.434,391.939 486.101,392.606 485,394.5C 482.29,393.441 480.457,394.441 479.5,397.5C 476.967,399.191 474.3,400.691 471.5,402C 471.218,405.875 469.051,407.042 465,405.5C 462.269,405.952 459.435,406.952 456.5,408.5C 456.167,409.167 455.833,409.833 455.5,410.5C 458.013,411.728 460.013,413.395 461.5,415.5C 458.331,414.083 455.331,412.417 452.5,410.5C 452.938,410.565 453.272,410.399 453.5,410C 451.301,408.303 448.968,406.803 446.5,405.5C 445.479,404.998 445.312,404.332 446,403.5C 449.331,401.59 451.831,398.924 453.5,395.5C 455.164,396.223 456.831,395.89 458.5,394.5C 458.489,395.441 458.989,396.108 460,396.5C 460.95,395.978 461.784,395.311 462.5,394.5C 464.102,395.55 464.935,394.883 465,392.5C 465.333,392.833 465.667,393.167 466,393.5C 467.46,390.79 469.46,390.124 472,391.5C 475.565,387.197 479.398,384.031 483.5,382C 483.888,380.475 483.888,378.808 483.5,377C 490.695,377.263 497.029,379.763 502.5,384.5 Z"/></g>
<g><path style="opacity:1" fill="#517cf8" d="M 652.5,377.5 C 656.423,378.795 660.09,380.628 663.5,383C 666.2,384.857 667.866,387.357 668.5,390.5C 668.167,390.5 667.833,390.5 667.5,390.5C 666.343,388.862 665.176,387.196 664,385.5C 661.724,386.645 659.557,386.312 657.5,384.5C 655.5,385 653.5,385.5 651.5,386C 652.167,386.333 652.833,386.667 653.5,387C 651.356,387.044 649.523,388.211 648,390.5C 647.667,389.833 647.333,389.167 647,388.5C 646.51,389.793 646.343,391.127 646.5,392.5C 645.022,392.238 643.689,392.571 642.5,393.5C 638.791,397.373 634.624,400.706 630,403.5C 628.434,402.939 627.101,403.606 626,405.5C 625.667,405.167 625.333,404.833 625,404.5C 622.763,406.281 620.763,408.281 619,410.5C 618.692,409.692 618.192,409.025 617.5,408.5C 616.108,414.756 615.441,421.089 615.5,427.5C 615.817,431.702 615.483,435.702 614.5,439.5C 614.832,428.813 614.499,418.146 613.5,407.5C 612.478,407.145 611.811,406.478 611.5,405.5C 607.871,402.678 604.204,399.844 600.5,397C 600.667,396.5 600.833,396 601,395.5C 602.049,396.517 603.216,396.684 604.5,396C 603.346,395.086 603.513,394.253 605,393.5C 606.908,394.079 608.575,394.079 610,393.5C 610.483,392.552 610.649,391.552 610.5,390.5C 615.395,391.425 618.895,389.758 621,385.5C 621.333,385.833 621.667,386.167 622,386.5C 623.319,384.513 625.152,383.346 627.5,383C 626.289,382.107 626.289,381.274 627.5,380.5C 631.045,379.776 634.212,377.776 637,374.5C 639.536,374.858 642.202,374.858 645,374.5C 647.465,375.651 649.965,376.651 652.5,377.5 Z"/></g>
<g><path style="opacity:1" fill="#5198fa" d="M 523.5,399.5 C 521.706,400.857 519.706,402.023 517.5,403C 519.159,405.226 518.492,406.893 515.5,408C 518.028,410.075 517.861,410.908 515,410.5C 514.692,411.308 514.192,411.975 513.5,412.5C 511.452,411.917 509.619,411.917 508,412.5C 507.044,413.579 506.211,414.745 505.5,416C 502.755,415.04 501.255,416.207 501,419.5C 498.303,420.466 495.47,420.466 492.5,419.5C 490.055,419.692 488.055,421.192 486.5,424C 480.001,423.803 480.001,425.137 486.5,428C 487.999,428.838 488.332,429.671 487.5,430.5C 482.554,428.197 477.887,425.531 473.5,422.5C 473.402,421.451 473.402,420.285 473.5,419C 477.615,417.52 481.615,415.853 485.5,414C 486.126,413.25 486.626,412.416 487,411.5C 487.333,411.833 487.667,412.167 488,412.5C 492.18,411.343 496.346,409.51 500.5,407C 501.779,402.533 504.445,401.033 508.5,402.5C 509.918,399.245 512.251,396.745 515.5,395C 513.071,394.549 512.904,393.715 515,392.5C 517.265,393.916 518.431,395.916 518.5,398.5C 520.292,398.366 521.958,398.699 523.5,399.5 Z"/></g>
<g><path style="opacity:1" fill="#52a3fa" d="M 502.5,384.5 C 504.411,384.574 505.578,385.574 506,387.5C 506.333,387.167 506.667,386.833 507,386.5C 508.993,387.914 511.16,388.914 513.5,389.5C 521.661,393.077 529.328,397.411 536.5,402.5C 532.157,401.451 527.99,400.118 524,398.5C 523.601,398.728 523.435,399.062 523.5,399.5C 521.958,398.699 520.292,398.366 518.5,398.5C 518.431,395.916 517.265,393.916 515,392.5C 512.904,393.715 513.071,394.549 515.5,395C 512.251,396.745 509.918,399.245 508.5,402.5C 504.445,401.033 501.779,402.533 500.5,407C 496.346,409.51 492.18,411.343 488,412.5C 487.667,412.167 487.333,411.833 487,411.5C 486.626,412.416 486.126,413.25 485.5,414C 481.615,415.853 477.615,417.52 473.5,419C 473.402,420.285 473.402,421.451 473.5,422.5C 469.136,420.656 465.136,418.323 461.5,415.5C 460.013,413.395 458.013,411.728 455.5,410.5C 455.833,409.833 456.167,409.167 456.5,408.5C 459.435,406.952 462.269,405.952 465,405.5C 469.051,407.042 471.218,405.875 471.5,402C 474.3,400.691 476.967,399.191 479.5,397.5C 480.457,394.441 482.29,393.441 485,394.5C 486.101,392.606 487.434,391.939 489,392.5C 489.772,391.151 490.939,390.318 492.5,390C 491.655,388.442 492.321,387.442 494.5,387C 493.289,386.107 493.289,385.274 494.5,384.5C 497.134,383.484 499.8,383.484 502.5,384.5 Z"/></g>
<g><path style="opacity:1" fill="#516ffa" d="M 667.5,390.5 C 666.046,391.52 665.713,392.687 666.5,394C 665.552,394.483 664.552,394.649 663.5,394.5C 663.5,395.833 663.5,397.167 663.5,398.5C 660.344,398.529 658.678,400.196 658.5,403.5C 655.64,404.18 653.14,405.513 651,407.5C 650.667,407.167 650.333,406.833 650,406.5C 647.667,409.5 645,412.167 642,414.5C 641.667,414.167 641.333,413.833 641,413.5C 638.656,415.774 635.822,416.941 632.5,417C 633.654,417.914 633.487,418.747 632,419.5C 631.667,419.167 631.333,418.833 631,418.5C 629.823,420.176 628.323,421.509 626.5,422.5C 625.033,422.277 623.533,421.944 622,421.5C 620.748,423.001 619.748,424.668 619,426.5C 618.581,425.328 617.915,424.328 617,423.5C 616.79,425.058 616.29,426.391 615.5,427.5C 615.441,421.089 616.108,414.756 617.5,408.5C 618.192,409.025 618.692,409.692 619,410.5C 620.763,408.281 622.763,406.281 625,404.5C 625.333,404.833 625.667,405.167 626,405.5C 627.101,403.606 628.434,402.939 630,403.5C 634.624,400.706 638.791,397.373 642.5,393.5C 643.689,392.571 645.022,392.238 646.5,392.5C 646.343,391.127 646.51,389.793 647,388.5C 647.333,389.167 647.667,389.833 648,390.5C 649.523,388.211 651.356,387.044 653.5,387C 652.833,386.667 652.167,386.333 651.5,386C 653.5,385.5 655.5,385 657.5,384.5C 659.557,386.312 661.724,386.645 664,385.5C 665.176,387.196 666.343,388.862 667.5,390.5 Z"/></g>
<g><path style="opacity:1" fill="#5291f8" d="M 536.5,402.5 C 544.604,406.386 552.604,410.553 560.5,415C 561.566,416.159 561.233,416.992 559.5,417.5C 555.332,413.378 550.332,410.378 544.5,408.5C 544.026,407.27 542.692,406.27 540.5,405.5C 537.908,405.936 535.575,406.936 533.5,408.5C 531.675,407.429 530.508,408.096 530,410.5C 529.667,409.833 529.333,409.167 529,408.5C 528.664,412.039 526.831,414.206 523.5,415C 523.833,415.333 524.167,415.667 524.5,416C 520.714,418.431 516.88,420.931 513,423.5C 509.406,424.529 505.573,424.529 501.5,423.5C 499.992,425.507 498.158,427.174 496,428.5C 495.667,428.167 495.333,427.833 495,427.5C 494.333,428.833 494.333,430.167 495,431.5C 495.333,431.167 495.667,430.833 496,430.5C 496.364,434.446 498.53,436.779 502.5,437.5C 505.735,439.034 508.901,440.701 512,442.5C 516.316,441.361 519.65,439.027 522,435.5C 522.414,435.957 522.914,436.291 523.5,436.5C 526.339,434.58 529.339,432.913 532.5,431.5C 533.107,431.624 533.44,431.957 533.5,432.5C 526.468,436.689 519.301,440.689 512,444.5C 503.705,439.94 495.539,435.273 487.5,430.5C 488.332,429.671 487.999,428.838 486.5,428C 480.001,425.137 480.001,423.803 486.5,424C 488.055,421.192 490.055,419.692 492.5,419.5C 495.47,420.466 498.303,420.466 501,419.5C 501.255,416.207 502.755,415.04 505.5,416C 506.211,414.745 507.044,413.579 508,412.5C 509.619,411.917 511.452,411.917 513.5,412.5C 514.192,411.975 514.692,411.308 515,410.5C 517.861,410.908 518.028,410.075 515.5,408C 518.492,406.893 519.159,405.226 517.5,403C 519.706,402.023 521.706,400.857 523.5,399.5C 523.435,399.062 523.601,398.728 524,398.5C 527.99,400.118 532.157,401.451 536.5,402.5 Z"/></g>
<g><path style="opacity:1" fill="#5166f7" d="M 667.5,390.5 C 667.833,390.5 668.167,390.5 668.5,390.5C 669.496,403.656 669.829,416.99 669.5,430.5C 668.513,425.695 668.179,420.695 668.5,415.5C 668.666,410.489 668.499,405.489 668,400.5C 667.587,403.232 666.92,405.899 666,408.5C 665.667,408.167 665.333,407.833 665,407.5C 660.616,410.752 656.783,414.586 653.5,419C 652.551,419.617 651.718,419.451 651,418.5C 650.683,420.301 650.016,420.634 649,419.5C 648.517,420.448 648.351,421.448 648.5,422.5C 645.687,422.548 643.021,423.215 640.5,424.5C 639.914,424.291 639.414,423.957 639,423.5C 634.584,424.437 630.418,426.604 626.5,430C 624,430.375 621.667,431.208 619.5,432.5C 618.833,432.167 618.167,431.833 617.5,431.5C 617.046,436.849 616.713,441.849 616.5,446.5C 615.265,446.721 614.265,447.388 613.5,448.5C 612.784,447.689 611.95,447.022 611,446.5C 607.724,448.227 604.224,448.894 600.5,448.5C 600.822,450.722 600.155,452.556 598.5,454C 594.432,455.894 590.098,456.727 585.5,456.5C 594.902,450.442 604.569,444.776 614.5,439.5C 615.483,435.702 615.817,431.702 615.5,427.5C 616.29,426.391 616.79,425.058 617,423.5C 617.915,424.328 618.581,425.328 619,426.5C 619.748,424.668 620.748,423.001 622,421.5C 623.533,421.944 625.033,422.277 626.5,422.5C 628.323,421.509 629.823,420.176 631,418.5C 631.333,418.833 631.667,419.167 632,419.5C 633.487,418.747 633.654,417.914 632.5,417C 635.822,416.941 638.656,415.774 641,413.5C 641.333,413.833 641.667,414.167 642,414.5C 645,412.167 647.667,409.5 650,406.5C 650.333,406.833 650.667,407.167 651,407.5C 653.14,405.513 655.64,404.18 658.5,403.5C 658.678,400.196 660.344,398.529 663.5,398.5C 663.5,397.167 663.5,395.833 663.5,394.5C 664.552,394.649 665.552,394.483 666.5,394C 665.713,392.687 666.046,391.52 667.5,390.5 Z"/></g>
<g><path style="opacity:1" fill="#5185f8" d="M 544.5,408.5 C 550.332,410.378 555.332,413.378 559.5,417.5C 550.869,422.485 542.202,427.485 533.5,432.5C 533.44,431.957 533.107,431.624 532.5,431.5C 529.339,432.913 526.339,434.58 523.5,436.5C 522.914,436.291 522.414,435.957 522,435.5C 519.65,439.027 516.316,441.361 512,442.5C 508.901,440.701 505.735,439.034 502.5,437.5C 502.413,434.402 502.913,434.068 504,436.5C 504.833,435 506,433.833 507.5,433C 512.833,430.333 518.167,427.667 523.5,425C 526.774,423.798 530.107,422.798 533.5,422C 534.126,421.25 534.626,420.416 535,419.5C 535.333,419.833 535.667,420.167 536,420.5C 540.229,416.888 543.062,412.888 544.5,408.5 Z"/></g>
<g><path style="opacity:1" fill="#528cfa" d="M 544.5,408.5 C 543.062,412.888 540.229,416.888 536,420.5C 535.667,420.167 535.333,419.833 535,419.5C 534.626,420.416 534.126,421.25 533.5,422C 530.107,422.798 526.774,423.798 523.5,425C 518.167,427.667 512.833,430.333 507.5,433C 506,433.833 504.833,435 504,436.5C 502.913,434.068 502.413,434.402 502.5,437.5C 498.53,436.779 496.364,434.446 496,430.5C 495.667,430.833 495.333,431.167 495,431.5C 494.333,430.167 494.333,428.833 495,427.5C 495.333,427.833 495.667,428.167 496,428.5C 498.158,427.174 499.992,425.507 501.5,423.5C 505.573,424.529 509.406,424.529 513,423.5C 516.88,420.931 520.714,418.431 524.5,416C 524.167,415.667 523.833,415.333 523.5,415C 526.831,414.206 528.664,412.039 529,408.5C 529.333,409.167 529.667,409.833 530,410.5C 530.508,408.096 531.675,407.429 533.5,408.5C 535.575,406.936 537.908,405.936 540.5,405.5C 542.692,406.27 544.026,407.27 544.5,408.5 Z"/></g>
<g><path style="opacity:1" fill="#52b9fa" d="M 356.5,410.5 C 370.372,417.403 383.705,425.07 396.5,433.5C 395.167,433.167 393.833,432.833 392.5,432.5C 389.457,431.691 386.624,430.358 384,428.5C 383.667,428.833 383.333,429.167 383,429.5C 381.528,424.347 378.361,422.847 373.5,425C 374.022,425.561 374.355,426.228 374.5,427C 373.311,428.583 372.478,430.416 372,432.5C 371.667,432.167 371.333,431.833 371,431.5C 369,432.833 367.333,434.5 366,436.5C 365.667,435.833 365.333,435.167 365,434.5C 364.333,435.833 363.667,435.833 363,434.5C 362.333,437.167 361.667,437.167 361,434.5C 360,435.833 359,437.167 358,438.5C 357.667,437.833 357.333,437.167 357,436.5C 356.79,438.058 356.29,439.391 355.5,440.5C 355.173,430.319 355.506,420.319 356.5,410.5 Z"/></g>
<g><path style="opacity:1" fill="#54b1fb" d="M 392.5,432.5 C 391.496,433.683 390.662,435.016 390,436.5C 388.211,436.623 386.378,436.623 384.5,436.5C 383.5,437.833 382.5,439.167 381.5,440.5C 380.914,440.291 380.414,439.957 380,439.5C 375.576,441.898 370.576,444.564 365,447.5C 362.455,446.203 359.955,446.369 357.5,448C 356.862,451.935 356.196,455.769 355.5,459.5C 355.5,453.167 355.5,446.833 355.5,440.5C 356.29,439.391 356.79,438.058 357,436.5C 357.333,437.167 357.667,437.833 358,438.5C 359,437.167 360,435.833 361,434.5C 361.667,437.167 362.333,437.167 363,434.5C 363.667,435.833 364.333,435.833 365,434.5C 365.333,435.167 365.667,435.833 366,436.5C 367.333,434.5 369,432.833 371,431.5C 371.333,431.833 371.667,432.167 372,432.5C 372.478,430.416 373.311,428.583 374.5,427C 374.355,426.228 374.022,425.561 373.5,425C 378.361,422.847 381.528,424.347 383,429.5C 383.333,429.167 383.667,428.833 384,428.5C 386.624,430.358 389.457,431.691 392.5,432.5 Z"/></g>
<g><path style="opacity:1" fill="#5360fa" d="M 668.5,415.5 C 667.224,417.562 666.39,419.896 666,422.5C 665.667,422.167 665.333,421.833 665,421.5C 662.567,423.626 659.734,424.959 656.5,425.5C 655.478,426.354 654.645,427.354 654,428.5C 653.667,428.167 653.333,427.833 653,427.5C 649.13,429.434 645.13,431.1 641,432.5C 640.055,432.095 639.388,431.428 639,430.5C 635.653,432.005 632.653,434.005 630,436.5C 628.333,436.5 626.667,436.5 625,436.5C 623.685,438.316 622.185,439.983 620.5,441.5C 622.385,442.197 622.718,443.197 621.5,444.5C 619.861,445.322 618.195,445.989 616.5,446.5C 616.713,441.849 617.046,436.849 617.5,431.5C 618.167,431.833 618.833,432.167 619.5,432.5C 621.667,431.208 624,430.375 626.5,430C 630.418,426.604 634.584,424.437 639,423.5C 639.414,423.957 639.914,424.291 640.5,424.5C 643.021,423.215 645.687,422.548 648.5,422.5C 648.351,421.448 648.517,420.448 649,419.5C 650.016,420.634 650.683,420.301 651,418.5C 651.718,419.451 652.551,419.617 653.5,419C 656.783,414.586 660.616,410.752 665,407.5C 665.333,407.833 665.667,408.167 666,408.5C 666.92,405.899 667.587,403.232 668,400.5C 668.499,405.489 668.666,410.489 668.5,415.5 Z"/></g>
<g><path style="opacity:1" fill="#509efb" d="M 419.5,447.5 C 417.123,447.784 414.956,447.784 413,447.5C 411.954,449.09 410.787,450.59 409.5,452C 403.352,455.239 397.019,458.239 390.5,461C 391.167,461.333 391.833,461.667 392.5,462C 391.167,462.333 389.833,462.667 388.5,463C 390.878,463.974 390.544,464.641 387.5,465C 387.833,465.333 388.167,465.667 388.5,466C 382.757,466.899 376.923,468.399 371,470.5C 370.055,470.095 369.388,469.428 369,468.5C 368.691,469.766 368.191,470.933 367.5,472C 370.339,473.92 373.339,475.587 376.5,477C 375.906,477.464 375.239,477.631 374.5,477.5C 370.665,475.75 366.999,473.75 363.5,471.5C 364.239,471.631 364.906,471.464 365.5,471C 361.99,469.56 360.323,467.227 360.5,464C 363.571,463.853 366.404,463.02 369,461.5C 372.974,461.961 376.974,460.627 381,457.5C 381.333,457.833 381.667,458.167 382,458.5C 386.028,455.974 390.028,453.307 394,450.5C 394.333,450.833 394.667,451.167 395,451.5C 395.833,450 397,448.833 398.5,448C 396.122,447.026 396.456,446.359 399.5,446C 399.167,445.667 398.833,445.333 398.5,445C 400.904,444.492 401.571,443.325 400.5,441.5C 401.5,440.5 402.5,439.5 403.5,438.5C 408.896,441.527 414.229,444.527 419.5,447.5 Z"/></g>
<g><path style="opacity:1" fill="#223a57" d="M 356.5,410.5 C 355.506,420.319 355.173,430.319 355.5,440.5C 355.5,446.833 355.5,453.167 355.5,459.5C 354.173,442.995 354.173,426.329 355.5,409.5C 356.107,409.624 356.44,409.957 356.5,410.5 Z"/></g>
<g><path style="opacity:1" fill="#5254f9" d="M 655.5,442.5 C 654.466,443.687 653.133,444.52 651.5,445C 652.654,445.914 652.487,446.747 651,447.5C 650.333,444.833 649.667,444.833 649,447.5C 648.282,446.549 647.449,446.383 646.5,447C 646.833,448 647.167,449 647.5,450C 645.532,451.544 643.365,452.711 641,453.5C 640.667,453.167 640.333,452.833 640,452.5C 636.059,454.598 632.225,456.931 628.5,459.5C 627.914,459.291 627.414,458.957 627,458.5C 625.766,460.734 623.933,462.234 621.5,463C 622.34,464.666 621.84,464.833 620,463.5C 617.342,466.124 614.675,468.791 612,471.5C 611.586,471.043 611.086,470.709 610.5,470.5C 608.821,472.104 606.821,472.771 604.5,472.5C 603.859,476.33 602.193,476.996 599.5,474.5C 598.012,476.271 596.179,477.604 594,478.5C 593.667,478.167 593.333,477.833 593,477.5C 591.967,480.033 590.133,481.699 587.5,482.5C 585.295,481.626 583.462,482.292 582,484.5C 579.21,483.68 576.044,484.014 572.5,485.5C 568.359,488.787 564.026,491.787 559.5,494.5C 556.162,493.788 552.995,494.455 550,496.5C 549.333,495.167 548.667,495.167 548,496.5C 547.667,495.833 547.333,495.167 547,494.5C 543.461,495.998 539.794,497.332 536,498.5C 534.644,497.62 533.144,497.286 531.5,497.5C 531.657,498.873 531.49,500.207 531,501.5C 530.333,502.833 529.667,502.833 529,501.5C 527.667,502.167 526.667,503.167 526,504.5C 525.667,503.833 525.333,503.167 525,502.5C 520.667,504.167 516.333,505.833 512,507.5C 511.667,507.167 511.333,506.833 511,506.5C 509.846,508.957 508.512,508.957 507,506.5C 505.35,507.891 504.85,509.391 505.5,511C 504.747,512.487 503.914,512.654 503,511.5C 501.706,512.854 501.54,514.188 502.5,515.5C 501.271,516.281 499.938,516.781 498.5,517C 499.167,517.333 499.833,517.667 500.5,518C 493.667,520.202 487,522.702 480.5,525.5C 478.803,526.364 477.637,527.697 477,529.5C 476.586,529.043 476.086,528.709 475.5,528.5C 473.679,529.728 472.679,531.394 472.5,533.5C 471.508,533.672 470.842,533.338 470.5,532.5C 470.286,530.856 470.62,529.356 471.5,528C 469.215,526.046 467.048,526.213 465,528.5C 464.5,527.333 463.667,526.5 462.5,526C 463.92,524.47 464.92,522.637 465.5,520.5C 468.333,520.418 471.333,520.252 474.5,520C 476.44,518.793 478.273,518.626 480,519.5C 484.738,517.097 488.905,513.93 492.5,510C 491.359,509.259 491.359,508.425 492.5,507.5C 494.925,506.109 497.091,504.442 499,502.5C 499.561,503.022 500.228,503.355 501,503.5C 503.091,502.744 504.924,501.577 506.5,500C 506.982,498.992 507.148,497.825 507,496.5C 508.79,498.291 510.623,498.625 512.5,497.5C 517.719,493.723 523.385,490.723 529.5,488.5C 533.683,487.743 537.683,486.41 541.5,484.5C 544.35,486.064 547.183,486.731 550,486.5C 552.756,485.314 555.422,483.981 558,482.5C 560.709,483.706 562.375,482.706 563,479.5C 563.414,479.957 563.914,480.291 564.5,480.5C 566.965,477.731 569.798,475.398 573,473.5C 574.147,474.458 575.147,474.125 576,472.5C 576.667,473.167 577.333,473.833 578,474.5C 579.884,473.023 581.884,471.69 584,470.5C 587.789,470.377 591.623,470.377 595.5,470.5C 597.622,468.824 599.622,466.991 601.5,465C 605.517,463.711 609.017,461.545 612,458.5C 612.333,458.833 612.667,459.167 613,459.5C 614.044,458.377 614.71,457.044 615,455.5C 615.333,455.833 615.667,456.167 616,456.5C 616.689,455.643 617.522,454.977 618.5,454.5C 621.522,451.746 624.355,448.746 627,445.5C 628.011,446.337 629.178,446.67 630.5,446.5C 630.343,445.127 630.51,443.793 631,442.5C 631.333,443.167 631.667,443.833 632,444.5C 632.615,442.884 633.615,441.551 635,440.5C 635.333,441.167 635.667,441.833 636,442.5C 639.765,440.293 643.598,438.793 647.5,438C 649.112,437.28 650.612,437.446 652,438.5C 652.333,437.833 652.667,437.167 653,436.5C 654.281,436.381 655.448,436.881 656.5,438C 656.088,439.564 655.755,441.064 655.5,442.5 Z"/></g>
<g><path style="opacity:1" fill="#51a6fa" d="M 392.5,432.5 C 393.833,432.833 395.167,433.167 396.5,433.5C 403.167,436.833 409.833,440.167 416.5,443.5C 420.772,445.774 424.772,448.441 428.5,451.5C 425.314,450.403 422.314,449.07 419.5,447.5C 414.229,444.527 408.896,441.527 403.5,438.5C 402.5,439.5 401.5,440.5 400.5,441.5C 401.571,443.325 400.904,444.492 398.5,445C 398.833,445.333 399.167,445.667 399.5,446C 396.456,446.359 396.122,447.026 398.5,448C 397,448.833 395.833,450 395,451.5C 394.667,451.167 394.333,450.833 394,450.5C 390.028,453.307 386.028,455.974 382,458.5C 381.667,458.167 381.333,457.833 381,457.5C 376.974,460.627 372.974,461.961 369,461.5C 366.404,463.02 363.571,463.853 360.5,464C 360.323,467.227 361.99,469.56 365.5,471C 364.906,471.464 364.239,471.631 363.5,471.5C 358.839,468.837 356.172,464.837 355.5,459.5C 356.196,455.769 356.862,451.935 357.5,448C 359.955,446.369 362.455,446.203 365,447.5C 370.576,444.564 375.576,441.898 380,439.5C 380.414,439.957 380.914,440.291 381.5,440.5C 382.5,439.167 383.5,437.833 384.5,436.5C 386.378,436.623 388.211,436.623 390,436.5C 390.662,435.016 391.496,433.683 392.5,432.5 Z"/></g>
<g><path style="opacity:1" fill="#505af8" d="M 668.5,415.5 C 668.179,420.695 668.513,425.695 669.5,430.5C 669.827,440.681 669.494,450.681 668.5,460.5C 668.5,454.167 668.5,447.833 668.5,441.5C 668.663,439.143 668.497,436.81 668,434.5C 667.602,437.232 666.102,439.065 663.5,440C 660.62,440.35 657.953,441.183 655.5,442.5C 655.755,441.064 656.088,439.564 656.5,438C 655.448,436.881 654.281,436.381 653,436.5C 652.667,437.167 652.333,437.833 652,438.5C 650.612,437.446 649.112,437.28 647.5,438C 643.598,438.793 639.765,440.293 636,442.5C 635.667,441.833 635.333,441.167 635,440.5C 633.615,441.551 632.615,442.884 632,444.5C 631.667,443.833 631.333,443.167 631,442.5C 630.51,443.793 630.343,445.127 630.5,446.5C 629.178,446.67 628.011,446.337 627,445.5C 624.355,448.746 621.522,451.746 618.5,454.5C 617.522,454.977 616.689,455.643 616,456.5C 615.667,456.167 615.333,455.833 615,455.5C 614.71,457.044 614.044,458.377 613,459.5C 612.667,459.167 612.333,458.833 612,458.5C 609.017,461.545 605.517,463.711 601.5,465C 599.622,466.991 597.622,468.824 595.5,470.5C 591.623,470.377 587.789,470.377 584,470.5C 581.884,471.69 579.884,473.023 578,474.5C 577.333,473.833 576.667,473.167 576,472.5C 575.147,474.125 574.147,474.458 573,473.5C 569.798,475.398 566.965,477.731 564.5,480.5C 563.914,480.291 563.414,479.957 563,479.5C 562.375,482.706 560.709,483.706 558,482.5C 555.422,483.981 552.756,485.314 550,486.5C 547.183,486.731 544.35,486.064 541.5,484.5C 537.683,486.41 533.683,487.743 529.5,488.5C 530.574,487.115 531.907,485.949 533.5,485C 550.727,475.221 568.061,465.721 585.5,456.5C 590.098,456.727 594.432,455.894 598.5,454C 600.155,452.556 600.822,450.722 600.5,448.5C 604.224,448.894 607.724,448.227 611,446.5C 611.95,447.022 612.784,447.689 613.5,448.5C 614.265,447.388 615.265,446.721 616.5,446.5C 618.195,445.989 619.861,445.322 621.5,444.5C 622.718,443.197 622.385,442.197 620.5,441.5C 622.185,439.983 623.685,438.316 625,436.5C 626.667,436.5 628.333,436.5 630,436.5C 632.653,434.005 635.653,432.005 639,430.5C 639.388,431.428 640.055,432.095 641,432.5C 645.13,431.1 649.13,429.434 653,427.5C 653.333,427.833 653.667,428.167 654,428.5C 654.645,427.354 655.478,426.354 656.5,425.5C 659.734,424.959 662.567,423.626 665,421.5C 665.333,421.833 665.667,422.167 666,422.5C 666.39,419.896 667.224,417.562 668.5,415.5 Z"/></g>
<g><path style="opacity:1" fill="#5097fa" d="M 419.5,447.5 C 422.314,449.07 425.314,450.403 428.5,451.5C 434.35,453.707 439.684,456.707 444.5,460.5C 440.376,458.44 436.042,456.94 431.5,456C 432.167,455.667 432.833,455.333 433.5,455C 429.328,451.693 425.495,451.859 422,455.5C 421.667,455.167 421.333,454.833 421,454.5C 419.352,455.717 417.519,456.55 415.5,457C 415.067,460.604 413.234,463.771 410,466.5C 409.667,465.833 409.333,465.167 409,464.5C 408.389,466.75 407.056,468.417 405,469.5C 403.667,469.5 402.333,469.5 401,469.5C 399.319,471.942 397.319,473.275 395,473.5C 394.586,473.043 394.086,472.709 393.5,472.5C 392.147,473.685 390.98,475.019 390,476.5C 387.766,476.626 385.432,476.293 383,475.5C 381.933,476.191 380.766,476.691 379.5,477C 378.167,477.667 378.167,478.333 379.5,479C 386.357,482.592 393.024,486.426 399.5,490.5C 399.5,490.833 399.5,491.167 399.5,491.5C 390.674,487.59 382.341,482.923 374.5,477.5C 375.239,477.631 375.906,477.464 376.5,477C 373.339,475.587 370.339,473.92 367.5,472C 368.191,470.933 368.691,469.766 369,468.5C 369.388,469.428 370.055,470.095 371,470.5C 376.923,468.399 382.757,466.899 388.5,466C 388.167,465.667 387.833,465.333 387.5,465C 390.544,464.641 390.878,463.974 388.5,463C 389.833,462.667 391.167,462.333 392.5,462C 391.833,461.667 391.167,461.333 390.5,461C 397.019,458.239 403.352,455.239 409.5,452C 410.787,450.59 411.954,449.09 413,447.5C 414.956,447.784 417.123,447.784 419.5,447.5 Z"/></g>
<g><path style="opacity:1" fill="#534dfa" d="M 668.5,441.5 C 667.71,442.609 667.21,443.942 667,445.5C 666.333,446.833 665.667,446.833 665,445.5C 662.137,449.958 658.471,453.624 654,456.5C 653.667,458.833 653.333,461.167 653,463.5C 650.454,459.884 648.121,460.218 646,464.5C 645.612,463.572 644.945,462.905 644,462.5C 642.674,463.799 641.34,465.132 640,466.5C 639.586,466.043 639.086,465.709 638.5,465.5C 637.692,467.423 637.192,469.423 637,471.5C 635.279,467.534 633.612,467.534 632,471.5C 631.667,471.167 631.333,470.833 631,470.5C 629.223,472.519 627.056,474.019 624.5,475C 622.951,476.214 621.785,477.714 621,479.5C 620.586,479.043 620.086,478.709 619.5,478.5C 615.684,481.273 612.517,483.94 610,486.5C 609.667,486.167 609.333,485.833 609,485.5C 604.89,486.298 601.223,487.965 598,490.5C 596.251,489.701 594.918,490.368 594,492.5C 591.324,491.428 588.991,492.095 587,494.5C 586.667,494.167 586.333,493.833 586,493.5C 581.187,495.027 576.52,496.694 572,498.5C 571.667,498.167 571.333,497.833 571,497.5C 570.424,500.124 569.09,500.791 567,499.5C 566.683,501.301 566.016,501.634 565,500.5C 562.721,502.163 560.387,503.83 558,505.5C 556.667,504.833 555.333,504.167 554,503.5C 551.405,507.54 547.905,508.874 543.5,507.5C 539.259,509.574 535.425,512.24 532,515.5C 531.667,515.167 531.333,514.833 531,514.5C 528.555,515.906 526.055,517.24 523.5,518.5C 522.914,518.291 522.414,517.957 522,517.5C 519.743,519.046 517.576,520.712 515.5,522.5C 512.912,522.457 510.579,523.623 508.5,526C 504.722,525.811 501.889,527.311 500,530.5C 499.125,528.487 497.791,528.487 496,530.5C 495.586,530.043 495.086,529.709 494.5,529.5C 491.223,530.254 487.89,530.754 484.5,531C 483.747,532.487 482.914,532.654 482,531.5C 481.138,533.594 479.972,534.594 478.5,534.5C 479.826,535.642 480.826,536.976 481.5,538.5C 478.008,537.59 475.008,535.924 472.5,533.5C 472.679,531.394 473.679,529.728 475.5,528.5C 476.086,528.709 476.586,529.043 477,529.5C 477.637,527.697 478.803,526.364 480.5,525.5C 487,522.702 493.667,520.202 500.5,518C 499.833,517.667 499.167,517.333 498.5,517C 499.938,516.781 501.271,516.281 502.5,515.5C 501.54,514.188 501.706,512.854 503,511.5C 503.914,512.654 504.747,512.487 505.5,511C 504.85,509.391 505.35,507.891 507,506.5C 508.512,508.957 509.846,508.957 511,506.5C 511.333,506.833 511.667,507.167 512,507.5C 516.333,505.833 520.667,504.167 525,502.5C 525.333,503.167 525.667,503.833 526,504.5C 526.667,503.167 527.667,502.167 529,501.5C 529.667,502.833 530.333,502.833 531,501.5C 531.49,500.207 531.657,498.873 531.5,497.5C 533.144,497.286 534.644,497.62 536,498.5C 539.794,497.332 543.461,495.998 547,494.5C 547.333,495.167 547.667,495.833 548,496.5C 548.667,495.167 549.333,495.167 550,496.5C 552.995,494.455 556.162,493.788 559.5,494.5C 564.026,491.787 568.359,488.787 572.5,485.5C 576.044,484.014 579.21,483.68 582,484.5C 583.462,482.292 585.295,481.626 587.5,482.5C 590.133,481.699 591.967,480.033 593,477.5C 593.333,477.833 593.667,478.167 594,478.5C 596.179,477.604 598.012,476.271 599.5,474.5C 602.193,476.996 603.859,476.33 604.5,472.5C 606.821,472.771 608.821,472.104 610.5,470.5C 611.086,470.709 611.586,471.043 612,471.5C 614.675,468.791 617.342,466.124 620,463.5C 621.84,464.833 622.34,464.666 621.5,463C 623.933,462.234 625.766,460.734 627,458.5C 627.414,458.957 627.914,459.291 628.5,459.5C 632.225,456.931 636.059,454.598 640,452.5C 640.333,452.833 640.667,453.167 641,453.5C 643.365,452.711 645.532,451.544 647.5,450C 647.167,449 646.833,448 646.5,447C 647.449,446.383 648.282,446.549 649,447.5C 649.667,444.833 650.333,444.833 651,447.5C 652.487,446.747 652.654,445.914 651.5,445C 653.133,444.52 654.466,443.687 655.5,442.5C 657.953,441.183 660.62,440.35 663.5,440C 666.102,439.065 667.602,437.232 668,434.5C 668.497,436.81 668.663,439.143 668.5,441.5 Z"/></g>
<g><path style="opacity:1" fill="#508efb" d="M 444.5,460.5 C 447.331,461.079 449.664,462.412 451.5,464.5C 448.023,462.742 444.357,462.242 440.5,463C 440.273,464.135 439.94,465.302 439.5,466.5C 434.02,469.16 428.353,471.327 422.5,473C 423.167,473.333 423.833,473.667 424.5,474C 421.725,475.374 419.392,477.207 417.5,479.5C 415.988,480.862 414.488,481.196 413,480.5C 412.082,482.632 410.749,483.299 409,482.5C 407,484.167 405,485.833 403,487.5C 400.693,486.61 399.527,487.61 399.5,490.5C 393.024,486.426 386.357,482.592 379.5,479C 378.167,478.333 378.167,477.667 379.5,477C 380.766,476.691 381.933,476.191 383,475.5C 385.432,476.293 387.766,476.626 390,476.5C 390.98,475.019 392.147,473.685 393.5,472.5C 394.086,472.709 394.586,473.043 395,473.5C 397.319,473.275 399.319,471.942 401,469.5C 402.333,469.5 403.667,469.5 405,469.5C 407.056,468.417 408.389,466.75 409,464.5C 409.333,465.167 409.667,465.833 410,466.5C 413.234,463.771 415.067,460.604 415.5,457C 417.519,456.55 419.352,455.717 421,454.5C 421.333,454.833 421.667,455.167 422,455.5C 425.495,451.859 429.328,451.693 433.5,455C 432.833,455.333 432.167,455.667 431.5,456C 436.042,456.94 440.376,458.44 444.5,460.5 Z"/></g>
<g><path style="opacity:1" fill="#5081fa" d="M 451.5,464.5 C 456.827,466.159 461.493,468.826 465.5,472.5C 462.362,471.685 459.529,470.351 457,468.5C 454.099,471.312 451.432,474.312 449,477.5C 448.383,478.449 448.549,479.282 449.5,480C 441.823,487.008 432.823,491.341 422.5,493C 419.978,493.957 417.811,495.457 416,497.5C 415.667,497.167 415.333,496.833 415,496.5C 414.333,497.5 414.333,498.5 415,499.5C 418.318,501.011 421.151,503.011 423.5,505.5C 415.164,501.335 407.164,496.668 399.5,491.5C 399.5,491.167 399.5,490.833 399.5,490.5C 399.527,487.61 400.693,486.61 403,487.5C 405,485.833 407,484.167 409,482.5C 410.749,483.299 412.082,482.632 413,480.5C 414.488,481.196 415.988,480.862 417.5,479.5C 419.392,477.207 421.725,475.374 424.5,474C 423.833,473.667 423.167,473.333 422.5,473C 428.353,471.327 434.02,469.16 439.5,466.5C 439.94,465.302 440.273,464.135 440.5,463C 444.357,462.242 448.023,462.742 451.5,464.5 Z"/></g>
<g><path style="opacity:1" fill="#5445f9" d="M 668.5,441.5 C 668.5,447.833 668.5,454.167 668.5,460.5C 667.956,464.746 665.956,468.246 662.5,471C 626.806,491.179 591.139,511.345 555.5,531.5C 554.993,530.141 553.993,529.141 552.5,528.5C 554.695,527.231 556.861,527.231 559,528.5C 561.376,527.624 562.876,525.958 563.5,523.5C 568.308,522.714 568.475,521.048 564,518.5C 559.999,520.228 557.666,518.894 557,514.5C 555.011,516.384 553.011,516.717 551,515.5C 548.192,517.289 545.192,518.623 542,519.5C 540.984,518.366 540.317,518.699 540,520.5C 537.155,519.742 534.821,520.742 533,523.5C 531.605,522.185 530.605,522.519 530,524.5C 529.667,523.833 529.333,523.167 529,522.5C 523.685,525.665 518.685,529.332 514,533.5C 512.657,532.786 511.324,533.12 510,534.5C 509.667,533.833 509.333,533.167 509,532.5C 507.333,533.833 505.667,535.167 504,536.5C 503.667,536.167 503.333,535.833 503,535.5C 501.175,536.103 499.341,536.77 497.5,537.5C 498.167,538.5 498.833,539.5 499.5,540.5C 496.122,542.917 495.788,545.584 498.5,548.5C 492.332,545.92 486.665,542.586 481.5,538.5C 480.826,536.976 479.826,535.642 478.5,534.5C 479.972,534.594 481.138,533.594 482,531.5C 482.914,532.654 483.747,532.487 484.5,531C 487.89,530.754 491.223,530.254 494.5,529.5C 495.086,529.709 495.586,530.043 496,530.5C 497.791,528.487 499.125,528.487 500,530.5C 501.889,527.311 504.722,525.811 508.5,526C 510.579,523.623 512.912,522.457 515.5,522.5C 517.576,520.712 519.743,519.046 522,517.5C 522.414,517.957 522.914,518.291 523.5,518.5C 526.055,517.24 528.555,515.906 531,514.5C 531.333,514.833 531.667,515.167 532,515.5C 535.425,512.24 539.259,509.574 543.5,507.5C 547.905,508.874 551.405,507.54 554,503.5C 555.333,504.167 556.667,504.833 558,505.5C 560.387,503.83 562.721,502.163 565,500.5C 566.016,501.634 566.683,501.301 567,499.5C 569.09,500.791 570.424,500.124 571,497.5C 571.333,497.833 571.667,498.167 572,498.5C 576.52,496.694 581.187,495.027 586,493.5C 586.333,493.833 586.667,494.167 587,494.5C 588.991,492.095 591.324,491.428 594,492.5C 594.918,490.368 596.251,489.701 598,490.5C 601.223,487.965 604.89,486.298 609,485.5C 609.333,485.833 609.667,486.167 610,486.5C 612.517,483.94 615.684,481.273 619.5,478.5C 620.086,478.709 620.586,479.043 621,479.5C 621.785,477.714 622.951,476.214 624.5,475C 627.056,474.019 629.223,472.519 631,470.5C 631.333,470.833 631.667,471.167 632,471.5C 633.612,467.534 635.279,467.534 637,471.5C 637.192,469.423 637.692,467.423 638.5,465.5C 639.086,465.709 639.586,466.043 640,466.5C 641.34,465.132 642.674,463.799 644,462.5C 644.945,462.905 645.612,463.572 646,464.5C 648.121,460.218 650.454,459.884 653,463.5C 653.333,461.167 653.667,458.833 654,456.5C 658.471,453.624 662.137,449.958 665,445.5C 665.667,446.833 666.333,446.833 667,445.5C 667.21,443.942 667.71,442.609 668.5,441.5 Z"/></g>
<g><path style="opacity:1" fill="#5174fa" d="M 465.5,472.5 C 471.35,474.707 476.684,477.707 481.5,481.5C 478.988,480.072 476.322,479.572 473.5,480C 471.335,483.508 468.502,485.341 465,485.5C 461.796,487.848 458.296,489.682 454.5,491C 455.731,492.183 455.731,493.349 454.5,494.5C 453.914,494.291 453.414,493.957 453,493.5C 447.234,499.953 440.234,504.287 432,506.5C 431.667,505.833 431.333,505.167 431,504.5C 430.51,505.793 430.343,507.127 430.5,508.5C 433.12,509.753 435.787,511.086 438.5,512.5C 439.298,512.957 439.631,513.624 439.5,514.5C 433.65,512.293 428.316,509.293 423.5,505.5C 421.151,503.011 418.318,501.011 415,499.5C 414.333,498.5 414.333,497.5 415,496.5C 415.333,496.833 415.667,497.167 416,497.5C 417.811,495.457 419.978,493.957 422.5,493C 432.823,491.341 441.823,487.008 449.5,480C 448.549,479.282 448.383,478.449 449,477.5C 451.432,474.312 454.099,471.312 457,468.5C 459.529,470.351 462.362,471.685 465.5,472.5 Z"/></g>
<g><path style="opacity:1" fill="#5068f9" d="M 481.5,481.5 C 485.655,482.742 489.322,484.742 492.5,487.5C 490.914,488.413 489.414,488.413 488,487.5C 485.664,488.292 485.164,489.625 486.5,491.5C 485.313,492.519 484.313,493.686 483.5,495C 483.833,495.333 484.167,495.667 484.5,496C 482.333,498.833 479.833,501.333 477,503.5C 475.602,502.949 474.268,502.616 473,502.5C 470.467,505.383 467.467,506.05 464,504.5C 462.632,505.703 461.132,506.703 459.5,507.5C 458.914,507.291 458.414,506.957 458,506.5C 457.5,507.667 456.667,508.5 455.5,509C 455.833,509.333 456.167,509.667 456.5,510C 454.254,511.039 452.087,512.206 450,513.5C 449.667,513.167 449.333,512.833 449,512.5C 448.667,513.5 448.333,514.5 448,515.5C 446.927,514.72 445.76,514.887 444.5,516C 448.004,517.7 451.004,519.866 453.5,522.5C 448.5,520.336 443.833,517.669 439.5,514.5C 439.631,513.624 439.298,512.957 438.5,512.5C 435.787,511.086 433.12,509.753 430.5,508.5C 430.343,507.127 430.51,505.793 431,504.5C 431.333,505.167 431.667,505.833 432,506.5C 440.234,504.287 447.234,499.953 453,493.5C 453.414,493.957 453.914,494.291 454.5,494.5C 455.731,493.349 455.731,492.183 454.5,491C 458.296,489.682 461.796,487.848 465,485.5C 468.502,485.341 471.335,483.508 473.5,480C 476.322,479.572 478.988,480.072 481.5,481.5 Z"/></g>
<g><path style="opacity:1" fill="#505bf8" d="M 492.5,487.5 C 499.167,490.833 505.833,494.167 512.5,497.5C 510.623,498.625 508.79,498.291 507,496.5C 507.148,497.825 506.982,498.992 506.5,500C 504.924,501.577 503.091,502.744 501,503.5C 500.228,503.355 499.561,503.022 499,502.5C 497.091,504.442 494.925,506.109 492.5,507.5C 491.359,508.425 491.359,509.259 492.5,510C 488.905,513.93 484.738,517.097 480,519.5C 478.273,518.626 476.44,518.793 474.5,520C 471.333,520.252 468.333,520.418 465.5,520.5C 464.92,522.637 463.92,524.47 462.5,526C 463.667,526.5 464.5,527.333 465,528.5C 467.048,526.213 469.215,526.046 471.5,528C 470.62,529.356 470.286,530.856 470.5,532.5C 464.332,529.92 458.665,526.586 453.5,522.5C 451.004,519.866 448.004,517.7 444.5,516C 445.76,514.887 446.927,514.72 448,515.5C 448.333,514.5 448.667,513.5 449,512.5C 449.333,512.833 449.667,513.167 450,513.5C 452.087,512.206 454.254,511.039 456.5,510C 456.167,509.667 455.833,509.333 455.5,509C 456.667,508.5 457.5,507.667 458,506.5C 458.414,506.957 458.914,507.291 459.5,507.5C 461.132,506.703 462.632,505.703 464,504.5C 467.467,506.05 470.467,505.383 473,502.5C 474.268,502.616 475.602,502.949 477,503.5C 479.833,501.333 482.333,498.833 484.5,496C 484.167,495.667 483.833,495.333 483.5,495C 484.313,493.686 485.313,492.519 486.5,491.5C 485.164,489.625 485.664,488.292 488,487.5C 489.414,488.413 490.914,488.413 492.5,487.5 Z"/></g>
<g><path style="opacity:1" fill="#523df9" d="M 555.5,531.5 C 542.867,538.15 530.533,545.317 518.5,553C 510.931,555.273 504.265,553.773 498.5,548.5C 495.788,545.584 496.122,542.917 499.5,540.5C 498.833,539.5 498.167,538.5 497.5,537.5C 499.341,536.77 501.175,536.103 503,535.5C 503.333,535.833 503.667,536.167 504,536.5C 505.667,535.167 507.333,533.833 509,532.5C 509.333,533.167 509.667,533.833 510,534.5C 511.324,533.12 512.657,532.786 514,533.5C 518.685,529.332 523.685,525.665 529,522.5C 529.333,523.167 529.667,523.833 530,524.5C 530.605,522.519 531.605,522.185 533,523.5C 534.821,520.742 537.155,519.742 540,520.5C 540.317,518.699 540.984,518.366 542,519.5C 545.192,518.623 548.192,517.289 551,515.5C 553.011,516.717 555.011,516.384 557,514.5C 557.666,518.894 559.999,520.228 564,518.5C 568.475,521.048 568.308,522.714 563.5,523.5C 562.876,525.958 561.376,527.624 559,528.5C 556.861,527.231 554.695,527.231 552.5,528.5C 553.993,529.141 554.993,530.141 555.5,531.5 Z"/></g>
<g><path style="opacity:1" fill="#82e1f7" d="M 167.5,643.5 C 179.28,642.976 190.947,643.81 202.5,646C 204.901,646.795 207.068,647.962 209,649.5C 209.829,654.533 209.662,659.533 208.5,664.5C 194.838,657.539 180.505,655.705 165.5,659C 156.988,663.739 156.321,669.406 163.5,676C 176.253,679.022 188.92,682.355 201.5,686C 214.031,692.254 217.864,702.087 213,715.5C 209.204,723.289 203.038,728.123 194.5,730C 180.181,733.224 165.847,733.224 151.5,730C 147.737,729.08 144.237,727.58 141,725.5C 140.171,720.136 140.337,714.802 141.5,709.5C 156.129,718.603 171.795,720.769 188.5,716C 195.62,712.861 197.286,707.861 193.5,701C 191.5,700 189.5,699 187.5,698C 176.01,695.981 164.677,693.314 153.5,690C 139.553,682.158 136.053,670.992 143,656.5C 149.651,649.093 157.818,644.76 167.5,643.5 Z"/></g>
<g><path style="opacity:1" fill="#60a4b4" d="M 246.5,645.5 C 239.646,645.176 232.979,645.509 226.5,646.5C 225.957,646.44 225.624,646.107 225.5,645.5C 232.656,644.181 239.656,644.181 246.5,645.5 Z"/></g>
<g><path style="opacity:1" fill="#599aaf" d="M 297.5,645.5 C 304.011,644.182 310.678,644.182 317.5,645.5C 317.376,646.107 317.043,646.44 316.5,646.5C 310.355,645.51 304.022,645.177 297.5,645.5 Z"/></g>
<g><path style="opacity:1" fill="#66aec0" d="M 437.5,645.5 C 463.661,644.502 489.995,644.169 516.5,644.5C 516.5,648.833 516.5,653.167 516.5,657.5C 515.517,653.702 515.183,649.702 515.5,645.5C 489.5,645.5 463.5,645.5 437.5,645.5 Z"/></g>
<g><path style="opacity:1" fill="#89f0fb" d="M 437.5,645.5 C 463.5,645.5 489.5,645.5 515.5,645.5C 515.183,649.702 515.517,653.702 516.5,657.5C 516.5,657.833 516.5,658.167 516.5,658.5C 506.167,658.5 495.833,658.5 485.5,658.5C 485.5,682.5 485.5,706.5 485.5,730.5C 484.833,730.5 484.167,730.5 483.5,730.5C 484.481,706.212 484.814,681.878 484.5,657.5C 494.5,657.5 504.5,657.5 514.5,657.5C 514.5,653.833 514.5,650.167 514.5,646.5C 489.167,646.5 463.833,646.5 438.5,646.5C 438.5,650.167 438.5,653.833 438.5,657.5C 448.348,657.173 458.014,657.506 467.5,658.5C 457.5,658.5 447.5,658.5 437.5,658.5C 437.5,654.167 437.5,649.833 437.5,645.5 Z"/></g>
<g><path style="opacity:1" fill="#84e3fa" d="M 246.5,645.5 C 255.144,658.101 263.811,670.767 272.5,683.5C 280.857,670.768 289.19,658.101 297.5,645.5C 304.022,645.177 310.355,645.51 316.5,646.5C 305.173,664.483 293.339,682.149 281,699.5C 280.5,709.828 280.334,720.161 280.5,730.5C 274.5,730.5 268.5,730.5 262.5,730.5C 262.667,719.828 262.5,709.161 262,698.5C 249.946,681.286 238.112,663.953 226.5,646.5C 232.979,645.509 239.646,645.176 246.5,645.5 Z"/></g>
<g><path style="opacity:1" fill="#89e5fb" d="M 398.5,702.5 C 398.842,703.338 399.508,703.672 400.5,703.5C 401.499,685.243 401.832,666.243 401.5,646.5C 406.5,646.5 411.5,646.5 416.5,646.5C 416.667,658.838 416.5,671.171 416,683.5C 415.138,685.594 413.972,686.594 412.5,686.5C 413.242,687.287 414.075,687.953 415,688.5C 415.5,701.829 415.667,715.163 415.5,728.5C 410.305,728.179 405.305,728.513 400.5,729.5C 384.486,710.816 368.819,691.816 353.5,672.5C 353.44,671.957 353.107,671.624 352.5,671.5C 351.5,691.155 351.167,710.822 351.5,730.5C 345.833,730.5 340.167,730.5 334.5,730.5C 334.5,701.833 334.5,673.167 334.5,644.5C 340.176,644.334 345.843,644.501 351.5,645C 367.379,664.041 383.046,683.207 398.5,702.5 Z"/></g>
<g><path style="opacity:1" fill="#83e1f7" d="M 709.5,644.5 C 716.532,644.17 723.532,644.503 730.5,645.5C 738.081,658.731 746.414,671.398 755.5,683.5C 763.958,670.752 772.291,657.919 780.5,645C 786.859,644.169 793.193,644.336 799.5,645.5C 788.197,663.302 776.697,680.968 765,698.5C 764.5,709.161 764.333,719.828 764.5,730.5C 758.167,730.5 751.833,730.5 745.5,730.5C 745.667,719.828 745.5,709.161 745,698.5C 732.897,680.614 721.064,662.614 709.5,644.5 Z"/></g>
<g><path style="opacity:1" fill="#84e4fb" d="M 483.5,730.5 C 478.167,730.5 472.833,730.5 467.5,730.5C 467.5,706.5 467.5,682.5 467.5,658.5C 458.014,657.506 448.348,657.173 438.5,657.5C 438.5,653.833 438.5,650.167 438.5,646.5C 463.833,646.5 489.167,646.5 514.5,646.5C 514.5,650.167 514.5,653.833 514.5,657.5C 504.5,657.5 494.5,657.5 484.5,657.5C 484.814,681.878 484.481,706.212 483.5,730.5 Z"/></g>
<g><path style="opacity:1" fill="#191227" d="M 623.5,674.5 C 627.05,683.211 633.383,689.045 642.5,692C 652.992,693.604 663.325,695.937 673.5,699C 680.292,702.739 681.292,707.739 676.5,714C 664.449,719.17 652.116,719.836 639.5,716C 634.547,714.857 630.214,712.69 626.5,709.5C 625.152,708.814 623.985,707.814 623,706.5C 622.576,710.19 621.742,710.357 620.5,707C 621.337,705.989 621.67,704.822 621.5,703.5C 619.459,703.854 617.626,703.854 616,703.5C 615.203,707.224 614.203,710.89 613,714.5C 612.333,715.833 611.667,715.833 611,714.5C 610.333,716.167 610.333,717.833 611,719.5C 611.333,718.5 611.667,717.5 612,716.5C 612.373,718.698 612.873,720.865 613.5,723C 612.427,724.416 612.427,725.75 613.5,727C 612.285,729.096 611.451,728.929 611,726.5C 609.649,728.019 608.149,729.352 606.5,730.5C 605.833,725.683 605.166,721.017 604.5,716.5C 587.833,716.5 571.167,716.5 554.5,716.5C 554.5,708.833 554.5,701.167 554.5,693.5C 569.167,693.5 583.833,693.5 598.5,693.5C 598.5,689.167 598.5,684.833 598.5,680.5C 583.833,680.5 569.167,680.5 554.5,680.5C 554.5,673.5 554.5,666.5 554.5,659.5C 571.009,659.83 587.342,659.496 603.5,658.5C 604.326,654.018 604.826,649.351 605,644.5C 605.145,649.456 606.145,654.456 608,659.5C 608.875,662.215 610.708,663.548 613.5,663.5C 613.01,665.948 613.843,667.615 616,668.5C 618.161,665.706 620.494,663.039 623,660.5C 622.324,665.299 622.49,669.965 623.5,674.5 Z"/></g>
<g><path style="opacity:1" fill="#83e1f8" d="M 692.5,649.5 C 693.103,654.619 692.436,659.285 690.5,663.5C 685.77,660.978 680.77,659.145 675.5,658C 667.833,657.333 660.167,657.333 652.5,658C 641.374,661.653 639.707,667.653 647.5,676C 659.172,679.001 670.838,682.001 682.5,685C 696.21,690.254 701.043,700.087 697,714.5C 694.5,721 690,725.5 683.5,728C 667.719,733.281 651.719,733.947 635.5,730C 631.737,729.08 628.237,727.58 625,725.5C 624.833,722.833 624.667,720.167 624.5,717.5C 624.522,714.41 625.188,711.743 626.5,709.5C 630.214,712.69 634.547,714.857 639.5,716C 652.116,719.836 664.449,719.17 676.5,714C 681.292,707.739 680.292,702.739 673.5,699C 663.325,695.937 652.992,693.604 642.5,692C 633.383,689.045 627.05,683.211 623.5,674.5C 623.506,655.987 632.839,645.82 651.5,644C 659.5,643.333 667.5,643.333 675.5,644C 681.621,644.763 687.287,646.597 692.5,649.5 Z"/></g>
<g><path style="opacity:1" fill="#83e3fc" d="M 554.5,658.5 C 554.5,658.833 554.5,659.167 554.5,659.5C 554.5,666.5 554.5,673.5 554.5,680.5C 553.671,673.679 553.171,666.679 553,659.5C 552.947,667.886 551.947,675.219 550,681.5C 550.333,682.167 550.667,682.833 551,683.5C 554.475,682.578 558.309,682.412 562.5,683C 558.774,683.428 555.441,684.761 552.5,687C 553.308,687.308 553.975,687.808 554.5,688.5C 553.223,693.153 552.557,697.987 552.5,703C 552.667,707.5 552.833,712 553,716.5C 553.5,717 554,717.5 554.5,718C 570.167,718.333 585.833,718.667 601.5,719C 602.451,722.057 602.784,725.223 602.5,728.5C 580.833,728.5 559.167,728.5 537.5,728.5C 537.5,701.167 537.5,673.833 537.5,646.5C 558.833,646.5 580.167,646.5 601.5,646.5C 601.5,650.167 601.5,653.833 601.5,657.5C 585.088,657.168 569.422,657.501 554.5,658.5 Z"/></g>
<g><path style="opacity:1" fill="#3f7c96" d="M 692.5,649.5 C 693.487,654.305 693.821,659.305 693.5,664.5C 692.209,664.737 691.209,664.404 690.5,663.5C 692.436,659.285 693.103,654.619 692.5,649.5 Z"/></g>
<g><path style="opacity:1" fill="#3b5e75" d="M 602.5,644.5 C 603.486,648.97 603.819,653.637 603.5,658.5C 587.342,659.496 571.009,659.83 554.5,659.5C 554.5,659.167 554.5,658.833 554.5,658.5C 570.5,658.5 586.5,658.5 602.5,658.5C 602.5,654.167 602.5,649.833 602.5,645.5C 602.5,645.167 602.5,644.833 602.5,644.5 Z"/></g>
<g><path style="opacity:1" fill="#5a9aaf" d="M 602.5,644.5 C 602.5,644.833 602.5,645.167 602.5,645.5C 580.5,645.5 558.5,645.5 536.5,645.5C 536.5,673.833 536.5,702.167 536.5,730.5C 535.502,702.005 535.169,673.338 535.5,644.5C 557.833,644.5 580.167,644.5 602.5,644.5 Z"/></g>
<g><path style="opacity:1" fill="#5d9fb6" d="M 417.5,645.5 C 411.833,645.5 406.167,645.5 400.5,645.5C 400.5,664.833 400.5,684.167 400.5,703.5C 399.508,703.672 398.842,703.338 398.5,702.5C 399.497,683.341 399.83,664.007 399.5,644.5C 405.69,644.177 411.69,644.51 417.5,645.5 Z"/></g>
<g><path style="opacity:1" fill="#80e3f7" d="M 602.5,645.5 C 602.5,649.833 602.5,654.167 602.5,658.5C 586.5,658.5 570.5,658.5 554.5,658.5C 569.422,657.501 585.088,657.168 601.5,657.5C 601.5,653.833 601.5,650.167 601.5,646.5C 580.167,646.5 558.833,646.5 537.5,646.5C 537.5,673.833 537.5,701.167 537.5,728.5C 559.167,728.5 580.833,728.5 602.5,728.5C 602.784,725.223 602.451,722.057 601.5,719C 585.833,718.667 570.167,718.333 554.5,718C 554,717.5 553.5,717 553,716.5C 552.833,712 552.667,707.5 552.5,703C 552.557,697.987 553.223,693.153 554.5,688.5C 553.975,687.808 553.308,687.308 552.5,687C 555.441,684.761 558.774,683.428 562.5,683C 558.309,682.412 554.475,682.578 551,683.5C 550.667,682.833 550.333,682.167 550,681.5C 551.947,675.219 552.947,667.886 553,659.5C 553.171,666.679 553.671,673.679 554.5,680.5C 569.167,680.5 583.833,680.5 598.5,680.5C 598.5,684.833 598.5,689.167 598.5,693.5C 583.833,693.5 569.167,693.5 554.5,693.5C 554.5,701.167 554.5,708.833 554.5,716.5C 571.167,716.5 587.833,716.5 604.5,716.5C 604.5,721.167 604.5,725.833 604.5,730.5C 581.833,730.5 559.167,730.5 536.5,730.5C 536.5,702.167 536.5,673.833 536.5,645.5C 558.5,645.5 580.5,645.5 602.5,645.5 Z"/></g>
<g><path style="opacity:1" fill="#87e8f6" d="M 417.5,645.5 C 417.5,673.833 417.5,702.167 417.5,730.5C 411.642,730.822 405.975,730.489 400.5,729.5C 405.305,728.513 410.305,728.179 415.5,728.5C 415.667,715.163 415.5,701.829 415,688.5C 414.075,687.953 413.242,687.287 412.5,686.5C 413.972,686.594 415.138,685.594 416,683.5C 416.5,671.171 416.667,658.838 416.5,646.5C 411.5,646.5 406.5,646.5 401.5,646.5C 401.832,666.243 401.499,685.243 400.5,703.5C 400.5,684.167 400.5,664.833 400.5,645.5C 406.167,645.5 411.833,645.5 417.5,645.5 Z"/></g>
<g><path style="opacity:1" fill="#4c7d93" d="M 516.5,658.5 C 506.681,659.494 496.681,659.827 486.5,659.5C 486.831,683.339 486.498,707.006 485.5,730.5C 485.5,706.5 485.5,682.5 485.5,658.5C 495.833,658.5 506.167,658.5 516.5,658.5 Z"/></g>
<g><path style="opacity:1" fill="#84e2f8" d="M 838.5,643.5 C 849.211,643.188 859.878,643.688 870.5,645C 874.232,645.974 877.732,647.474 881,649.5C 881.829,654.533 881.662,659.533 880.5,664.5C 867.919,657.968 854.586,655.801 840.5,658C 831.926,660.201 829.092,665.367 832,673.5C 833.579,675.041 835.413,676.208 837.5,677C 848.651,679.03 859.651,681.697 870.5,685C 883.901,689.967 888.734,699.467 885,713.5C 882.928,720.573 878.428,725.406 871.5,728C 857.111,732.763 842.445,733.763 827.5,731C 822.349,729.951 817.516,728.117 813,725.5C 812.171,720.136 812.337,714.802 813.5,709.5C 828.913,719.079 845.246,720.912 862.5,715C 867.311,710.209 867.644,705.209 863.5,700C 850.891,696.454 838.225,693.121 825.5,690C 810.574,681.342 807.408,669.509 816,654.5C 822.331,648.251 829.831,644.584 838.5,643.5 Z"/></g>
<g><path style="opacity:1" fill="#538d9d" d="M 353.5,672.5 C 352.833,691.833 352.167,711.167 351.5,730.5C 351.167,710.822 351.5,691.155 352.5,671.5C 353.107,671.624 353.44,671.957 353.5,672.5 Z"/></g>
</svg>
