<?xml version="1.0" encoding="utf-8"?>
<!-- Generator: Adobe Illustrator 25.0.0, SVG Export Plug-In . SVG Version: 6.00 Build 0)  -->
<svg version="1.1" id="Layer_1" xmlns="http://www.w3.org/2000/svg" xmlns:xlink="http://www.w3.org/1999/xlink" x="0px" y="0px"
	 viewBox="0 0 860.3 669" style="enable-background:new 0 0 860.3 669;" xml:space="preserve">
<style type="text/css">
	.st0{fill:#9E9E9E;}
	.st1{fill:#30206E;}
	.st2{fill:#87E389;}
	.st3{fill:#DFB43B;}
	.st4{fill:#50B782;}
	.st5{fill:#604A8D;}
	.st6{fill:#0075C2;}
	.st7{fill:#FFFFFF;}
	.st8{fill:none;stroke:#FFFFFF;stroke-width:3.4613;stroke-linecap:round;stroke-miterlimit:10;}
	.st9{fill:none;}
	.st10{fill:none;stroke:#FFFFFF;stroke-width:3.4613;stroke-linecap:round;}
	.st11{fill:#FFFFFF;stroke:#FFFFFF;stroke-width:0.5769;stroke-miterlimit:10;}
	.st12{fill:none;stroke:#FFFFFF;stroke-width:3.4613;stroke-linecap:round;stroke-linejoin:round;}
	.st13{fill:none;stroke:#FFFFFF;stroke-width:3.4613;}
	.st14{fill:none;stroke:#DFB43B;stroke-width:3.4613;stroke-linecap:round;stroke-miterlimit:10;}
	.st15{fill:none;stroke:#0075C2;stroke-width:3.4613;stroke-linecap:round;stroke-miterlimit:10;}
	.st16{fill:none;stroke:#50B782;stroke-width:3.4613;stroke-linecap:round;stroke-miterlimit:10;}
	.st17{fill:none;stroke:#87E389;stroke-width:3.4613;stroke-linecap:round;stroke-miterlimit:10;}
	.st18{fill:none;stroke:#604A8D;stroke-width:3.4613;stroke-linecap:round;stroke-miterlimit:10;}
	.st19{fill:none;stroke:#30206E;stroke-width:3.4613;stroke-linecap:round;stroke-miterlimit:10;}
</style>
<g>
	<g id="Diagramme">
		<rect x="3" y="457.9" class="st0" width="123.1" height="123.1"/>
		<path class="st1" d="M516.8,580.9c-89,0-171.4-46.8-217.1-123.1H126.1v123.1H516.8z"/>
		<path class="st2" d="M517.2,74h-0.1c-90.6,0-174.3,48.3-219.5,126.7l219.7,126.9V74z"/>
		<path class="st3" d="M517.2,327.5L297.5,200.6c-45.3,78.5-45.3,175.2,0,253.6l219.7-126.9V327.5z"/>
		<path class="st4" d="M517.2,327.5l219.4-126.7C691.4,122.4,607.8,74,517.2,74L517.2,327.5L517.2,327.5z"/>
		
			<image style="overflow:visible;opacity:0.1;enable-background:new    ;" width="258" height="271" xlink:href="92302B49.png"  transform="matrix(2.3075 0 0 2.3075 353.7446 144.6977)">
		</image>
		
			<image style="overflow:visible;opacity:0.1;enable-background:new    ;" width="126" height="141" xlink:href="92302B4B.png"  transform="matrix(2.3075 0 0 2.3075 494.5731 292.4488)">
		</image>
		<path class="st5" d="M517.2,327.5v253.4c90.6,0,174.2-48.3,219.5-126.8L517.2,327.5L517.2,327.5z"/>
		<path class="st6" d="M736.7,200.8L517.2,327.5l219.4,126.7C781.8,375.8,781.8,279.2,736.7,200.8z"/>
		<path class="st1" d="M297.5,454.3v0.1H517v3.5H299.7c45.8,76.4,128.3,123.1,217.4,123h0.1V327.5L297.5,454.3z"/>
	</g>
	<g id="ECM_Components">
		<path class="st5" d="M660.5,632.3l-7.5-17.2l0,0l3.1,19.1l-2.9,1.3l-11.9-15.2l0,0l7.6,17.1l-3.4,1.5l-9.8-22.3l5-2.3l11.5,14.4
			l0,0l-3-18.2l5.3-2.3l9.8,22.3L660.5,632.3z"/>
		<path class="st5" d="M678.7,623l-3.5-4l-5.6,3l1.3,5.1l-3.6,1.9l-6.1-24.3l4.6-2.4l16.6,18.8L678.7,623z M665.3,606.9L665.3,606.9
			l3.3,11.9l4.6-2.5L665.3,606.9z"/>
		<path class="st5" d="M694.5,613.8l-14.8-11.1l0,0l9,14.7l-3.1,1.9l-12.7-20.8l4-2.4l14.8,11.2l0,0l-9.1-14.8l3-1.8l12.7,20.8
			L694.5,613.8z"/>
		<path class="st5" d="M711.7,602.2l-3.9-3.6l-5.2,3.6l2,4.9l-3.3,2.3l-9.1-23.4l4.3-3l18.8,16.6L711.7,602.2z M696.4,587.8h-0.1
			l4.8,11.4l4.3-3L696.4,587.8z"/>
		<path class="st5" d="M726.9,590.4c-0.7,1-1.5,1.9-2.5,2.7c-1.1,0.8-2.3,1.4-3.7,1.6c-1.3,0.2-2.6,0.2-3.9-0.2
			c-1.4-0.4-2.7-1.1-3.9-2c-2.8-2.1-5-4.9-6.4-8.1c-0.6-1.3-1-2.8-1.1-4.3c-0.1-1.3,0.1-2.6,0.5-3.8c0.5-1.2,1.3-2.2,2.3-3
			c1-0.8,2.1-1.4,3.4-1.7c1.1-0.3,2.3-0.2,3.4,0.1v3.7c-1.4-0.5-3-0.2-4.1,0.7c-0.6,0.5-1.1,1.2-1.3,1.9c-0.2,0.8-0.2,1.7,0,2.5
			c0.2,1,0.6,1.9,1,2.8c0.6,1,1.2,2,1.9,2.9c0.7,0.9,1.5,1.8,2.3,2.5c0.7,0.7,1.6,1.2,2.5,1.7c0.7,0.3,1.5,0.5,2.3,0.5
			c0.8,0,1.6-0.3,2.2-0.9c0.4-0.3,0.7-0.7,1-1.1c0.2-0.3,0.4-0.7,0.5-1.1l-3.9-4.9l-2.3,1.8l-2.3-2.8l5.2-4.1l7.7,9.7
			C727.6,588.6,727.3,589.6,726.9,590.4z"/>
		<path class="st5" d="M732.9,585.5l-16.2-18.2l8.1-7.2l2.3,2.7l-5.1,4.6l4.3,4.8l4.8-4.2l2.3,2.5l-4.8,4.2l4.8,5.4l5.4-4.8l2.4,2.8
			L732.9,585.5z"/>
		<path class="st3" d="M213.1,392.5l-23.3,4.8l-0.8-3.9l23.3-4.8L213.1,392.5z"/>
		<path class="st3" d="M209.8,374l-15.5,9.2v0.1l16.6-2.7l0.6,3.5l-23.5,3.7l-0.7-4.5l15.6-9.2l0,0l-16.7,2.7l-0.5-3.4l23.4-3.7
			L209.8,374z"/>
		<path class="st3" d="M187.7,361.5l20.2-2.2l0.4,3.9l-20.2,2.2l0.5,4.4l-3.4,0.3l-1.4-12.6l3.4-0.4L187.7,361.5z"/>
		<path class="st3" d="M207.3,352.9l-23.7,1.5l-0.7-10.5l3.6-0.2l0.4,6.7l6.3-0.4l-0.4-6.2l3.3-0.2l0.4,6.2l6.9-0.4l-0.4-6.9
			l3.6-0.2L207.3,352.9z"/>
		<path class="st3" d="M206.3,327.3c0.4,1.1,0.6,2.3,0.6,3.5c0.1,2.6-1.2,5.1-3.3,6.6c-1.2,0.8-2.5,1.4-3.9,1.8
			c-1.7,0.5-3.4,0.7-5.1,0.7c-1.7,0-3.4-0.1-5-0.5c-1.4-0.3-2.8-0.9-4-1.7c-1.1-0.7-2-1.6-2.6-2.7c-0.6-1.1-1-2.3-1-3.6
			c0-1.2,0.2-2.5,0.7-3.6c0.5-1,1.2-1.9,2.1-2.5l2.8,2.3c-1.2,0.8-1.9,2.2-1.9,3.6c0,0.8,0.3,1.5,0.7,2.1c0.5,0.6,1.2,1.1,1.9,1.5
			c0.9,0.4,1.8,0.7,2.8,0.9c1.1,0.2,2.2,0.3,3.3,0.3c1.1,0,2.3-0.1,3.4-0.3c1-0.2,1.9-0.5,2.8-0.9c0.7-0.4,1.4-0.9,1.8-1.5
			c0.4-0.6,0.7-1.4,0.6-2.2c0-0.5-0.1-1-0.2-1.4c-0.1-0.4-0.3-0.7-0.5-1h-6.1v2.9h-3.5v-6.5l12-0.1
			C205.5,325.5,206,326.4,206.3,327.3z"/>
		<path class="st3" d="M206.8,311.1l-10.3,3.2v2.3l10.1,0.4l-0.2,3.9l-23.7-1l0.3-6.7c0-0.9,0.2-1.8,0.5-2.7
			c0.3-0.8,0.7-1.5,1.3-2.1c0.6-0.6,1.4-1,2.2-1.3c1-0.3,2-0.4,3.1-0.4c0.8,0,1.6,0.2,2.3,0.5c0.6,0.2,1.2,0.5,1.8,0.9
			c0.4,0.3,0.8,0.8,1.1,1.2c0.3,0.4,0.4,0.8,0.6,1.3L207,307L206.8,311.1z M190,310.7c-0.6,0-1.2,0-1.8,0.2
			c-0.8,0.3-1.5,0.9-1.8,1.8c-0.1,0.4-0.2,0.8-0.2,1.2v2.3l7.3,0.3v-2.3c0.1-0.9-0.2-1.8-0.8-2.4C192,311,191,310.6,190,310.7
			L190,310.7z"/>
		<path class="st3" d="M208.2,294l-5.1,0.7l-0.6,6.1l4.9,1.7l-0.4,4l-23.1-8.1l0.5-5.1l24.2-3.4L208.2,294z M187.9,296.3v0.1
			l11.5,3.7l0.5-5.2L187.9,296.3z"/>
		<path class="st3" d="M189.6,279.6l20.1,2.8l-0.6,3.9l-20.1-2.8l-0.6,4.4l-3.4-0.5l1.8-12.6l3.4,0.5L189.6,279.6z"/>
		<path class="st3" d="M210.7,276l-23.4-4.4l1.9-10.3l3.5,0.6l-1.2,6.6l6.2,1.2l1.1-6.1l3.2,0.6l-1.1,6.1l6.9,1.3l1.3-6.9l3.5,0.6
			L210.7,276z"/>
		<path class="st4" d="M609.1,29.5c-2.5,0.5-5.1-0.3-6.9-2c-0.9-0.9-1.6-2-1.9-3.3c-0.4-1.4-0.6-2.8-0.6-4.3c0-1.7,0.3-3.4,0.8-5
			c0.4-1.6,1.1-3.2,2-4.6c0.7-1.3,1.7-2.4,2.8-3.4c1-0.8,2.1-1.5,3.4-1.8c1.2-0.3,2.5-0.3,3.7,0c1.2,0.3,2.3,0.9,3.3,1.7
			c0.8,0.7,1.5,1.7,1.8,2.8l-3,2.1c-0.4-1.4-1.5-2.5-2.9-2.9c-0.7-0.3-1.6-0.3-2.3,0c-0.8,0.3-1.4,0.8-2,1.4
			c-0.7,0.7-1.2,1.6-1.6,2.4c-0.5,1-0.9,2.1-1.2,3.2c-0.3,1.1-0.5,2.2-0.6,3.4c-0.1,1-0.1,2,0.1,2.9c0.1,0.8,0.5,1.6,1,2.3
			c0.5,0.6,1.1,1,1.9,1.2c0.7,0.2,1.4,0.2,2.1,0c0.7-0.2,1.3-0.6,1.8-1.1L612,28C611.2,28.7,610.2,29.2,609.1,29.5z"/>
		<path class="st4" d="M632.4,24.8c-0.6,1.6-1.4,3.2-2.3,4.6c-0.8,1.2-1.8,2.3-2.9,3.2c-1,0.8-2.1,1.3-3.4,1.6
			c-2.5,0.4-5.1-0.4-6.8-2.3c-0.8-1-1.4-2.1-1.7-3.3c-0.3-1.4-0.5-2.9-0.3-4.3c0.4-3.5,1.5-6.8,3.3-9.8c0.8-1.2,1.7-2.3,2.9-3.2
			c1-0.8,2.1-1.3,3.4-1.5c1.2-0.2,2.5-0.1,3.7,0.3c1.2,0.4,2.2,1.1,3.1,2c0.8,0.9,1.4,2.1,1.7,3.3c0.4,1.4,0.5,2.9,0.3,4.3
			C633.4,21.4,633,23.1,632.4,24.8z M628.5,23.4c0.4-1.1,0.7-2.2,0.8-3.3c0.1-1,0.1-1.9,0-2.9c0-0.8-0.3-1.6-0.7-2.3
			c-0.4-0.6-0.9-1-1.6-1.3c-0.7-0.2-1.4-0.2-2.1,0c-0.7,0.3-1.4,0.7-1.9,1.3c-0.7,0.7-1.2,1.5-1.7,2.3c-0.5,1-1,2.1-1.4,3.2
			c-0.4,1.1-0.7,2.2-0.9,3.3c-0.2,1-0.2,1.9-0.1,2.9c0,0.8,0.3,1.6,0.7,2.3c0.4,0.6,0.9,1.1,1.6,1.3c0.7,0.2,1.4,0.2,2,0
			c0.7-0.3,1.4-0.7,1.9-1.3c0.7-0.7,1.2-1.5,1.7-2.3C627.6,25.6,628.1,24.6,628.5,23.4L628.5,23.4z"/>
		<path class="st4" d="M631.7,37.6l8.9-22.3l3.8,1.5l-7.5,18.8l6.1,2.3l-1.4,3.5L631.7,37.6z"/>
		<path class="st4" d="M643.8,42.5l9.9-21.9l3.7,1.7L649,40.7l6,2.7l-1.5,3.4L643.8,42.5z"/>
		<path class="st4" d="M664.7,52.5l1.3-5.1l-5.6-2.8l-3.4,4l-3.6-1.8L669.6,28l4.6,2.3l-5.7,24L664.7,52.5z M670.1,32.6H670
			l-7.7,9.4l4.6,2.3L670.1,32.6z"/>
		<path class="st4" d="M685.5,56.5c-0.5,0.9-1.3,1.7-2.1,2.3c-0.7,0.5-1.5,0.8-2.3,1c-0.8,0.2-1.6,0.2-2.4,0
			c-0.8-0.2-1.5-0.5-2.2-0.9l-6.1-3.5l12-20.8l5.5,3.2c0.6,0.4,1.2,0.8,1.8,1.3c0.6,0.5,1.1,1.2,1.4,1.9c0.3,0.7,0.5,1.5,0.5,2.3
			c-0.1,1-0.4,2.1-1,3c-0.6,1.1-1.5,2-2.6,2.6c-0.9,0.4-1.8,0.6-2.8,0.5l0,0c0.3,0.3,0.6,0.7,0.9,1.2c0.3,0.5,0.4,1.1,0.5,1.6
			c0.1,0.7,0.1,1.3,0,2C686.4,55,686,55.8,685.5,56.5z M682.4,54.2c0.3-0.5,0.5-1.1,0.6-1.7c0.1-0.5,0-1-0.2-1.5
			c-0.1-0.4-0.4-0.8-0.7-1.2c-0.3-0.3-0.6-0.6-1-0.8l-2.1-1.2l-3.7,6.5l2.3,1.3c0.4,0.2,0.9,0.4,1.3,0.5c0.4,0.1,0.9,0.1,1.3,0
			c0.4-0.1,0.9-0.3,1.2-0.6C681.8,55.2,682.1,54.8,682.4,54.2L682.4,54.2z M687,45c0.3-0.4,0.5-1,0.5-1.5c0-0.4,0-0.8-0.1-1.2
			c-0.1-0.4-0.4-0.7-0.6-1c-0.3-0.3-0.6-0.6-1-0.8l-1.9-1.1l-3.3,5.8l2,1.1c0.4,0.2,0.7,0.4,1.1,0.4c0.4,0.1,0.8,0.1,1.2,0
			c0.4-0.1,0.8-0.3,1.2-0.5c0.4-0.3,0.8-0.7,1.1-1.1L687,45z"/>
		<path class="st4" d="M705.1,62.9c-1,1.5-2.1,2.8-3.3,4c-1.1,1-2.3,1.7-3.6,2.3c-1.2,0.5-2.4,0.7-3.7,0.7c-1.2-0.1-2.5-0.5-3.5-1.2
			c-1.1-0.6-2-1.6-2.6-2.7c-0.6-1.1-0.8-2.4-0.8-3.6c0-1.5,0.3-2.9,0.8-4.3c0.6-1.6,1.4-3.2,2.3-4.6c0.9-1.5,2.1-2.8,3.3-4
			c1.1-1,2.3-1.7,3.6-2.3c1.2-0.5,2.4-0.7,3.7-0.6c2.5,0.2,4.8,1.7,6,3.9c0.6,1.1,0.9,2.4,0.9,3.6c0,1.4-0.3,2.9-0.8,4.2
			C706.7,60,706,61.5,705.1,62.9z M701.6,60.6c0.6-1,1.2-2,1.7-3c0.4-0.9,0.7-1.8,0.8-2.8c0.1-0.8,0.1-1.6-0.1-2.3
			c-0.2-0.7-0.6-1.2-1.2-1.6c-0.6-0.4-1.3-0.6-2-0.5c-0.8,0.1-1.5,0.4-2.2,0.8c-0.9,0.5-1.6,1.1-2.3,1.9c-0.8,0.9-1.5,1.8-2.1,2.7
			c-0.6,1-1.2,2-1.7,3c-0.4,0.9-0.7,1.8-0.9,2.8c-0.2,0.8-0.2,1.5,0,2.3c0.4,1.4,1.8,2.3,3.2,2.1c0.8-0.1,1.5-0.4,2.2-0.8
			c0.8-0.5,1.6-1.1,2.3-1.9C700.2,62.5,700.9,61.6,701.6,60.6L701.6,60.6z"/>
		<path class="st4" d="M709.2,80.8l3.2-10.4l-1.8-1.3l-6.1,8.2l-3.1-2.3l14.4-19.3l5.4,4.1c0.8,0.5,1.4,1.2,2,1.9
			c0.5,0.7,0.8,1.5,0.9,2.3c0.1,0.8,0.1,1.7-0.1,2.5c-0.3,1-0.8,1.9-1.5,2.8c-0.5,0.7-1.1,1.3-1.8,1.8c-0.5,0.4-1.2,0.7-1.8,0.9
			c-0.5,0.2-1.1,0.3-1.7,0.3c-0.5,0-1-0.1-1.4-0.3l-3.2,11.4L709.2,80.8z M719.1,67c0.4-0.5,0.7-1,0.8-1.6c0.1-0.5,0.1-0.9,0-1.4
			c-0.1-0.4-0.3-0.8-0.5-1.1c-0.2-0.3-0.5-0.6-0.9-0.9l-1.8-1.4l-4.4,5.9l1.8,1.4c0.7,0.6,1.6,0.8,2.5,0.7
			C717.6,68.4,718.4,67.9,719.1,67L719.1,67z"/>
		<path class="st4" d="M722.6,91.7l2.3-4.6l-4.8-4l-4.2,3.1l-3.1-2.6L732.7,69l3.9,3.3l-10.9,22.2L722.6,91.7z M732.2,73.5
			L732.2,73.5l-9.6,7.5l4,3.3L732.2,73.5z"/>
		<path class="st4" d="M745.2,84.3l-13.8,15.2l-2.9-2.7l13.8-15.2l-3.3-3l2.3-2.6l9.4,8.7l-2.3,2.6L745.2,84.3z"/>
		<path class="st4" d="M736.1,103.9L753,86.9l7.6,7.5l-2.5,2.5l-4.8-4.8l-4.6,4.6l4.5,4.4l-2.3,2.3l-4.5-4.4l-4.8,5l5,5l-2.5,2.6
			L736.1,103.9z"/>
		<path class="st6" d="M846.6,286.5c-1.1,0.2-2.2,0.2-3.3,0c-0.9-0.2-1.7-0.6-2.5-1.1c-0.7-0.5-1.2-1.1-1.7-1.8
			c-0.4-0.7-0.7-1.5-0.8-2.3l-0.4-2.8l-9.5,1.5l-0.6-3.9l23.7-3.6l1,6.5c0.1,0.8,0.1,1.5,0,2.3c-0.1,0.8-0.4,1.6-0.8,2.3
			c-0.5,0.8-1.1,1.4-1.9,1.9C848.8,286,847.7,286.3,846.6,286.5z M845.9,282.7c1-0.1,2-0.6,2.7-1.3c0.5-0.7,0.7-1.6,0.5-2.4
			l-0.3-2.3l-7.5,1.2l0.3,2.3c0.1,0.9,0.6,1.6,1.3,2.1C843.8,282.8,844.9,283,845.9,282.7L845.9,282.7z"/>
		<path class="st6" d="M831.1,301.8l9.8-4.6l-0.2-2.3l-10.2,1l-0.4-3.9l23.9-2.3l0.7,6.7c0.1,0.9,0,1.8-0.1,2.7
			c-0.1,0.8-0.5,1.6-1,2.3c-0.5,0.7-1.2,1.2-2,1.6c-0.9,0.5-2,0.7-3,0.8c-0.8,0.1-1.7,0.1-2.5,0c-0.7-0.1-1.3-0.4-1.9-0.7
			c-0.5-0.3-1-0.6-1.3-1.1c-0.3-0.4-0.6-0.8-0.7-1.2l-10.7,5.1L831.1,301.8z M848,299.9c0.6,0,1.2-0.2,1.8-0.5
			c0.8-0.4,1.3-1.2,1.5-2.1c0-0.4,0-0.8,0-1.2l-0.2-2.3l-7.4,0.7l0.2,2.3c0.1,0.9,0.5,1.7,1.2,2.3C845.9,299.8,847,300.1,848,299.9z
			"/>
		<path class="st6" d="M844.5,324.4c-1.7,0.1-3.5,0-5.2-0.3c-1.4-0.3-2.8-0.8-4-1.5c-1.1-0.6-2-1.5-2.7-2.6c-0.7-1.1-1-2.3-1.1-3.5
			c-0.1-1.3,0.2-2.5,0.8-3.6c0.6-1.1,1.4-2.1,2.5-2.8c1.2-0.8,2.5-1.5,3.9-1.9c1.7-0.5,3.4-0.7,5.1-0.8c1.7-0.1,3.5,0,5.2,0.3
			c1.4,0.3,2.8,0.8,4,1.5c1.1,0.6,2,1.5,2.7,2.6c1.3,2.2,1.4,4.9,0.3,7.2c-0.6,1.1-1.4,2.1-2.4,2.8c-1.2,0.8-2.5,1.5-3.9,1.9
			C847.9,324.1,846.2,324.3,844.5,324.4z M844.3,320.3c1.1-0.1,2.3-0.2,3.4-0.4c1-0.2,1.9-0.5,2.7-1c0.7-0.3,1.3-0.8,1.8-1.4
			c0.9-1.2,0.8-2.8-0.2-3.8c-0.5-0.6-1.2-1-1.9-1.3c-0.9-0.4-1.8-0.6-2.8-0.7c-1.1-0.1-2.3-0.2-3.4-0.1c-1.2,0-2.3,0.2-3.4,0.4
			c-1,0.2-1.9,0.5-2.7,0.9c-0.7,0.3-1.3,0.8-1.8,1.5c-0.4,0.6-0.6,1.2-0.6,1.9c0,0.7,0.3,1.4,0.8,1.9c0.5,0.6,1.2,1,1.9,1.3
			c0.9,0.3,1.9,0.6,2.8,0.7C842,320.3,843.1,320.3,844.3,320.3z"/>
		<path class="st6" d="M832.5,339.7c-0.6-1.1-0.9-2.4-0.8-3.7c0-1.3,0.3-2.5,1-3.6c0.7-1.1,1.6-2,2.7-2.7c1.2-0.8,2.6-1.3,4-1.7
			c1.7-0.4,3.4-0.6,5.1-0.6c1.7,0,3.4,0.2,5.1,0.7c1.4,0.4,2.8,1,4,1.8c1.1,0.7,1.9,1.7,2.6,2.8c0.6,1.1,0.8,2.3,0.8,3.5
			c0,1.2-0.3,2.5-0.8,3.6c-0.5,1-1.3,1.9-2.3,2.5l-2.8-2.3c1.2-0.7,2-2.1,2.1-3.5c0-0.8-0.2-1.5-0.7-2.1c-0.5-0.6-1.1-1.2-1.9-1.5
			c-0.9-0.5-1.8-0.8-2.8-0.9c-1.1-0.2-2.3-0.3-3.4-0.3c-1.1,0-2.3,0.1-3.4,0.3c-1,0.2-1.9,0.4-2.8,0.9c-0.7,0.3-1.4,0.8-1.9,1.5
			c-0.5,0.6-0.7,1.4-0.7,2.2c0,0.7,0.2,1.4,0.6,2c0.4,0.6,0.9,1.1,1.5,1.5l-2.8,2.3C833.8,341.5,833.1,340.7,832.5,339.7z"/>
		<path class="st6" d="M832,344.6l24,1.5l-0.6,10.6l-3.6-0.2l0.4-6.8l-6.4-0.4l-0.4,6.3l-3.3-0.2l0.4-6.3l-7.1-0.4l-0.4,7.1
			l-3.6-0.2L832,344.6z"/>
		<path class="st6" d="M849.3,370.3c1.1-0.7,1.8-1.8,2-3.1c0-0.4,0-0.8,0-1.1c-0.1-0.4-0.3-0.7-0.5-1c-0.3-0.3-0.6-0.6-1-0.8
			c-0.5-0.2-1-0.4-1.5-0.4c-0.9-0.2-1.8,0.1-2.4,0.6c-0.7,0.6-1.3,1.4-1.8,2.2c-0.4,0.6-0.8,1.1-1.2,1.7c-0.5,0.6-1,1.1-1.6,1.5
			c-0.6,0.5-1.3,0.8-2.1,1c-0.9,0.2-1.8,0.3-2.7,0.2c-1.1-0.1-2.1-0.4-3-0.9c-0.8-0.4-1.5-1-2.1-1.7c-0.6-0.7-1-1.5-1.2-2.3
			c-0.2-0.9-0.3-1.8-0.2-2.7c0.1-1.3,0.5-2.5,1.2-3.5c0.6-1,1.4-1.8,2.3-2.5l2.7,2.5c-0.7,0.4-1.2,1-1.7,1.7
			c-0.4,0.7-0.7,1.4-0.8,2.2c-0.1,0.8,0.1,1.7,0.6,2.3c0.6,0.7,1.4,1,2.3,1.1c0.9,0.1,1.9-0.1,2.6-0.7c0.7-0.7,1.4-1.5,2-2.3
			c0.4-0.6,0.8-1.2,1.2-1.7c0.5-0.5,1-1,1.5-1.3c0.6-0.4,1.3-0.7,2-0.8c0.9-0.2,1.7-0.2,2.6,0c1.1,0.1,2.2,0.4,3.1,0.9
			c0.8,0.4,1.5,1,2.1,1.8c0.5,0.7,0.9,1.5,1.1,2.3c0.2,0.8,0.3,1.6,0.2,2.5c-0.1,1.1-0.4,2.2-0.9,3.2c-0.5,0.9-1.1,1.7-2,2.3
			L849.3,370.3z"/>
		<path class="st6" d="M847,385.8c1.1-0.6,1.9-1.7,2.1-3c0.1-0.4,0.1-0.7,0-1.1c-0.1-0.4-0.2-0.7-0.4-1.1c-0.2-0.3-0.6-0.6-0.9-0.8
			c-0.5-0.3-1-0.4-1.5-0.5c-0.9-0.2-1.8,0-2.5,0.5c-0.7,0.6-1.4,1.3-1.9,2.1c-0.4,0.6-0.8,1.1-1.3,1.6c-0.5,0.5-1,1-1.6,1.4
			c-0.6,0.4-1.4,0.7-2.1,0.9c-0.9,0.2-1.8,0.2-2.7,0c-1-0.2-2.1-0.5-3-1c-0.8-0.5-1.5-1.1-2.1-1.8c-0.5-0.7-0.9-1.5-1-2.3
			c-0.2-0.9-0.2-1.8,0-2.7c0.2-1.2,0.6-2.4,1.3-3.5c0.6-0.9,1.4-1.7,2.3-2.3l2.6,2.6c-0.7,0.4-1.3,1-1.8,1.6
			c-0.5,0.6-0.8,1.4-0.9,2.1c-0.2,0.8,0,1.7,0.5,2.3c0.6,0.7,1.4,1.1,2.3,1.2c0.9,0.2,1.9,0,2.6-0.6c0.8-0.7,1.5-1.4,2.1-2.3
			c0.4-0.6,0.8-1.1,1.3-1.6c0.5-0.5,1-0.9,1.6-1.3c0.6-0.4,1.3-0.6,2-0.7c0.9-0.1,1.7-0.1,2.6,0c1.1,0.1,2.1,0.5,3.1,1.1
			c0.8,0.5,1.4,1.1,1.9,1.9c0.5,0.7,0.8,1.5,1,2.3c0.1,0.8,0.1,1.7,0,2.5c-0.2,1.1-0.5,2.2-1.1,3.1c-0.5,0.9-1.2,1.6-2.1,2.1
			L847,385.8z"/>
		<path class="st2" d="M328.7,81.6l-4.1-3.3l-4.9,3.9l2.3,4.7l-3.3,2.5l-10.3-22.5l4-3.2L332,78.9L328.7,81.6z M312.9,68.3
			L312.9,68.3l5.4,10.9l4.1-3.2L312.9,68.3z"/>
		<path class="st2" d="M341.8,72l-8.9-6.2l-1.8,1.3l5.9,8.4l-3.2,2.3l-13.8-19.6l5.5-3.9c0.8-0.5,1.6-0.9,2.4-1.2
			c0.8-0.3,1.6-0.3,2.5-0.2c0.8,0.1,1.6,0.4,2.3,0.9c0.9,0.6,1.6,1.4,2.2,2.3c0.5,0.7,0.9,1.5,1.1,2.3c0.2,0.6,0.3,1.3,0.3,2
			c0,0.6-0.1,1.1-0.3,1.7c-0.1,0.5-0.4,0.9-0.7,1.2l9.9,6.6L341.8,72z M331.7,58.3c-0.3-0.5-0.8-0.9-1.3-1.3
			c-0.4-0.3-0.8-0.4-1.3-0.5c-0.4,0-0.8,0-1.2,0.2c-0.4,0.1-0.8,0.3-1.1,0.6l-1.9,1.3l4.3,6l1.9-1.3c0.8-0.5,1.3-1.3,1.5-2.2
			C332.7,60.2,332.4,59.1,331.7,58.3z"/>
		<path class="st2" d="M357.1,61.7c-0.6,1.1-1.5,2.1-2.6,2.7c-1.1,0.7-2.3,1.1-3.6,1.1c-1.3,0-2.5-0.2-3.7-0.7
			c-1.3-0.6-2.5-1.4-3.6-2.4c-1.2-1.2-2.3-2.5-3.2-3.9c-0.9-1.4-1.7-3-2.2-4.6c-0.4-1.4-0.7-2.9-0.6-4.3c0-1.3,0.4-2.5,0.9-3.7
			c0.6-1,1.5-1.9,2.6-2.5c1-0.7,2.2-1.1,3.4-1.3c1.1-0.1,2.3,0.1,3.3,0.5l-0.4,3.6c-1.3-0.7-2.9-0.6-4.1,0.2c-0.7,0.4-1.2,1-1.4,1.7
			c-0.2,0.7-0.3,1.5-0.3,2.3c0.1,1,0.4,1.9,0.7,2.9c0.4,1.1,1,2.1,1.6,3.1c0.6,1,1.3,1.9,2.1,2.7c0.7,0.7,1.5,1.4,2.3,1.9
			c0.7,0.4,1.5,0.7,2.3,0.8c0.8,0.1,1.6-0.1,2.2-0.6c0.6-0.4,1.1-0.9,1.4-1.6c0.3-0.6,0.4-1.3,0.4-2l3.4,1.1
			C357.9,59.7,357.6,60.7,357.1,61.7z"/>
		<path class="st2" d="M371.1,54.1l-5.2-9.2l-6.2,3.4l5.1,9.2l-3.5,1.9l-11.5-21l3.5-1.9l4.7,8.5l6.2-3.4l-4.6-8.5l3.5-1.9l11.5,21
			L371.1,54.1z"/>
		<path class="st2" d="M378.7,50.2L368,28.6l3.6-1.8l10.7,21.5L378.7,50.2z"/>
		<path class="st2" d="M394.3,42.8l-4.6,2.1l-15.1-19.6l4.1-1.8l11.5,16l0,0L386,20.2l3.9-1.8L394.3,42.8z"/>
		<path class="st2" d="M401.8,39.6L393,17.2l9.9-3.8l1.3,3.3l-6.3,2.4l2.3,6l5.8-2.3l1.2,3.1l-5.8,2.3l2.6,6.6l6.6-2.6l1.3,3.4
			L401.8,39.6z"/>
		<path class="st0" d="M26.1,646c-0.8-1-2-1.6-3.2-1.6c-0.4,0-0.7,0.1-1.1,0.2c-0.4,0.1-0.7,0.3-0.9,0.6c-0.3,0.3-0.5,0.7-0.7,1.1
			c-0.2,0.5-0.3,1-0.3,1.5c0,0.9,0.3,1.7,0.9,2.3c0.7,0.6,1.5,1.2,2.3,1.6c0.6,0.3,1.2,0.6,1.8,1c0.6,0.4,1.1,0.8,1.6,1.4
			c0.5,0.6,0.9,1.2,1.2,1.9c0.3,0.8,0.5,1.7,0.5,2.6c0,1.1-0.2,2.1-0.6,3.1c-0.3,0.9-0.8,1.6-1.4,2.3c-0.6,0.6-1.3,1.1-2.1,1.4
			c-0.8,0.3-1.7,0.5-2.6,0.5c-1.2,0-2.5-0.2-3.6-0.8c-1-0.5-1.9-1.1-2.6-2l2.1-3c0.5,0.6,1.1,1.1,1.8,1.5c0.7,0.3,1.4,0.5,2.2,0.5
			c0.8,0,1.5-0.3,2.1-0.9c0.6-0.7,0.9-1.6,0.8-2.5c0-0.9-0.3-1.8-1-2.5c-0.8-0.7-1.6-1.2-2.5-1.7c-0.6-0.3-1.2-0.7-1.8-1.1
			c-0.6-0.4-1.1-0.8-1.5-1.4c-0.4-0.6-0.8-1.2-1-1.9c-0.3-0.8-0.4-1.7-0.4-2.6c0-1.1,0.2-2.2,0.6-3.2c0.3-0.9,0.8-1.7,1.5-2.3
			c0.6-0.6,1.3-1,2.1-1.3c0.8-0.3,1.6-0.4,2.4-0.4c1.1,0,2.2,0.2,3.2,0.6c0.9,0.4,1.7,1,2.3,1.8L26.1,646z"/>
		<path class="st0" d="M47.5,653.3c0,1.7-0.2,3.5-0.6,5.2c-0.3,1.4-0.9,2.8-1.7,4c-0.7,1-1.6,1.9-2.7,2.6c-2.2,1.2-4.8,1.2-7,0
			c-1.1-0.6-2-1.5-2.6-2.6c-0.8-1.2-1.4-2.6-1.7-4c-0.4-1.7-0.6-3.4-0.6-5.2c0-1.7,0.2-3.5,0.6-5.1c0.3-1.4,0.9-2.7,1.6-4
			c0.7-1,1.6-1.9,2.7-2.6c1.1-0.6,2.3-0.9,3.6-0.9c1.2,0,2.4,0.3,3.5,0.9c1.1,0.6,2,1.5,2.7,2.6c0.8,1.2,1.3,2.6,1.7,4
			C47.3,649.9,47.5,651.6,47.5,653.3z M43.4,653.3c0-1.2-0.1-2.3-0.3-3.4c-0.1-1-0.4-1.9-0.8-2.8c-0.3-0.7-0.8-1.3-1.4-1.8
			c-0.5-0.4-1.2-0.7-1.8-0.7c-0.7,0-1.4,0.2-1.9,0.7c-0.6,0.5-1.1,1.1-1.4,1.8c-0.4,0.9-0.7,1.8-0.8,2.8c-0.3,2.3-0.3,4.6,0,6.9
			c0.1,1,0.4,1.9,0.8,2.8c0.3,0.7,0.8,1.4,1.4,1.9c0.5,0.5,1.2,0.7,1.9,0.7c0.7,0,1.4-0.2,1.9-0.7c0.6-0.5,1-1.1,1.3-1.9
			c0.4-0.9,0.7-1.8,0.8-2.8C43.3,655.7,43.4,654.5,43.4,653.3z"/>
		<path class="st0" d="M65.1,660.4c-0.2,1-0.7,2-1.3,2.9c-0.6,0.8-1.4,1.5-2.3,1.9c-1.1,0.5-2.2,0.8-3.4,0.7c-1.2,0-2.3-0.2-3.4-0.7
			c-0.9-0.4-1.7-1.1-2.3-1.9c-0.6-0.9-1-1.9-1.2-2.9c-0.3-1.2-0.4-2.4-0.4-3.6v-15.5h4v15.1c0,0.7,0,1.4,0.1,2.1
			c0.1,0.6,0.3,1.2,0.5,1.8c0.2,0.5,0.6,0.9,1,1.2c0.5,0.3,1.1,0.5,1.7,0.5c0.6,0,1.2-0.1,1.7-0.5c0.4-0.3,0.8-0.7,1-1.2
			c0.3-0.6,0.4-1.2,0.5-1.8c0.1-0.7,0.2-1.4,0.2-2.1v-15.1h3.9v15.5C65.4,658,65.3,659.2,65.1,660.4z"/>
		<path class="st0" d="M79.5,665.4l-3.6-10.2h-2.2v10.2h-3.8v-24h6.6c0.9,0,1.8,0.1,2.7,0.4c0.8,0.2,1.5,0.7,2.1,1.2
			c0.6,0.6,1.1,1.3,1.4,2.1c0.3,1,0.5,2,0.5,3.1c0,0.8-0.1,1.7-0.3,2.5c-0.2,0.6-0.5,1.2-0.9,1.8c-0.3,0.5-0.7,0.9-1.2,1.2
			c-0.4,0.3-0.8,0.5-1.3,0.6l4.2,11.1L79.5,665.4z M79.2,648.4c0-0.6-0.1-1.2-0.3-1.8c-0.3-0.8-1-1.5-1.8-1.7
			c-0.4-0.1-0.8-0.2-1.2-0.2h-2.3v7.4h2.3c0.9,0,1.7-0.3,2.3-0.9C78.9,650.4,79.3,649.4,79.2,648.4L79.2,648.4z"/>
		<path class="st0" d="M98,665.1c-2.2,1.2-5,1.2-7.2,0c-1.1-0.7-2-1.6-2.7-2.6c-0.8-1.2-1.4-2.6-1.7-4c-0.4-1.6-0.6-3.3-0.6-5.1
			c0-1.7,0.2-3.4,0.6-5.1c0.3-1.4,0.9-2.8,1.7-4c0.7-1.1,1.6-2,2.7-2.6c1.1-0.6,2.3-0.9,3.5-0.9c1.2,0,2.4,0.2,3.5,0.8
			c1,0.5,1.8,1.2,2.5,2.2l-2.3,2.9c-0.7-1.2-2-2-3.5-2c-0.8,0-1.5,0.2-2.1,0.7c-0.6,0.5-1.1,1.2-1.5,1.9c-0.4,0.9-0.7,1.8-0.9,2.8
			c-0.2,1.1-0.3,2.3-0.3,3.4c0,1.1,0.1,2.3,0.3,3.4c0.2,1,0.5,1.9,0.9,2.8c0.3,0.7,0.9,1.4,1.5,1.9c1.2,0.9,2.9,0.9,4.1,0
			c0.6-0.4,1-0.9,1.4-1.5l2.3,2.7C99.7,663.7,98.9,664.5,98,665.1z"/>
		<path class="st0" d="M103.1,665.4v-24h10.5v3.6h-6.6v6.4h6.2v3.4h-6.2v6.9h6.9v3.6L103.1,665.4z"/>
		<path class="st1" d="M272.5,664c-1.1,0.6-2.4,0.9-3.7,0.9c-1.3,0-2.5-0.3-3.6-0.9c-1.1-0.6-2.1-1.5-2.7-2.6
			c-0.8-1.2-1.4-2.6-1.8-4c-0.8-3.3-0.8-6.8,0-10.1c0.4-1.4,1-2.8,1.8-4c0.7-1.1,1.7-2,2.8-2.6c1.1-0.6,2.3-0.9,3.6-0.9
			c1.2,0,2.5,0.2,3.6,0.8c1,0.5,1.9,1.2,2.5,2.2l-2.3,2.8c-0.8-1.2-2.1-2-3.6-2c-0.8,0-1.5,0.2-2.1,0.7c-0.6,0.5-1.1,1.2-1.5,1.9
			c-0.4,0.9-0.7,1.8-0.9,2.8c-0.2,1.1-0.3,2.3-0.3,3.5c0,1.1,0.1,2.3,0.3,3.4c0.2,1,0.5,1.9,0.9,2.8c0.4,0.7,0.9,1.4,1.5,1.9
			c0.6,0.5,1.4,0.7,2.2,0.7c0.7,0,1.4-0.2,2-0.6c0.6-0.4,1-0.9,1.4-1.5l2.3,2.7C274.3,662.6,273.5,663.4,272.5,664z"/>
		<path class="st1" d="M287.7,664.3l-1.2-5.1h-6.2l-1.2,5.1h-4l5.9-24h5.1l5.8,24H287.7z M283.5,644.1h-0.1l-2.6,11.9h5.2
			L283.5,644.1z"/>
		<path class="st1" d="M307.7,647.4c0,1.1-0.2,2.2-0.6,3.2c-0.3,0.9-0.8,1.6-1.5,2.3c-0.6,0.6-1.3,1.1-2.1,1.3
			c-0.8,0.3-1.6,0.4-2.4,0.4h-2.8v9.6h-3.9v-24h6.6c0.8,0,1.6,0.1,2.3,0.3c0.8,0.2,1.5,0.6,2.2,1.2c0.7,0.6,1.2,1.3,1.6,2.2
			C307.5,645.1,307.7,646.2,307.7,647.4z M303.9,647.4c0.1-1-0.2-2-0.9-2.8c-0.6-0.6-1.4-0.9-2.3-0.9h-2.3v7.6h2.3
			c0.9,0,1.7-0.3,2.3-1C303.6,649.5,303.9,648.5,303.9,647.4L303.9,647.4z"/>
		<path class="st1" d="M316.7,643.7v20.6h-4v-20.6h-4.5v-3.5h12.9v3.5H316.7z"/>
		<path class="st1" d="M337.7,659.3c-0.2,1-0.7,2-1.3,2.9c-0.6,0.8-1.4,1.5-2.3,2c-2.2,0.9-4.7,0.9-6.9,0c-0.9-0.4-1.7-1.1-2.3-2
			c-0.6-0.9-1.1-1.9-1.3-2.9c-0.3-1.2-0.4-2.4-0.4-3.6v-15.5h4v15.1c0,0.7,0,1.4,0.1,2.1c0.1,0.6,0.3,1.2,0.6,1.8
			c0.2,0.5,0.6,0.9,1,1.2c0.5,0.3,1.1,0.5,1.7,0.5c0.6,0,1.2-0.1,1.7-0.5c0.4-0.3,0.8-0.7,1-1.2c0.3-0.6,0.5-1.2,0.6-1.8
			c0.1-0.7,0.1-1.4,0.1-2.1v-15.1h4v15.5C338.1,657,337.9,658.2,337.7,659.3z"/>
		<path class="st1" d="M352.3,664.3l-3.7-10.2h-2.3v10.2h-3.9v-24h6.8c0.9,0,1.8,0.1,2.7,0.4c0.8,0.2,1.5,0.7,2.1,1.2
			c0.6,0.6,1.1,1.3,1.4,2.1c0.4,1,0.5,2,0.5,3.1c0,0.8-0.1,1.7-0.3,2.5c-0.2,0.6-0.5,1.2-0.9,1.8c-0.3,0.5-0.7,0.9-1.2,1.2
			c-0.4,0.3-0.8,0.5-1.3,0.6l4.2,11.1L352.3,664.3z M352,647.3c0-0.6-0.1-1.2-0.3-1.8c-0.2-0.4-0.4-0.8-0.8-1.1
			c-0.3-0.3-0.7-0.5-1.1-0.6c-0.4-0.1-0.8-0.2-1.2-0.2h-2.3v7.4h2.3c0.9,0,1.8-0.3,2.4-0.9C351.8,649.4,352.1,648.4,352,647.3z"/>
		<path class="st1" d="M359.7,664.3v-24h10.6v3.6h-6.8v6.4h6.3v3.3h-6.3v7.1h7.1v3.6H359.7z"/>
	</g>
	<g id="line_inside">
		<circle class="st7" cx="387.4" cy="328.8" r="6"/>
		<path class="st8" d="M387.4,327.9c0.8-69.4,58.2-125.3,128.9-125.3c71.2,0,129,56.8,129,126.9s-57.7,126.8-129,126.8"/>
		<line class="st8" x1="299.1" y1="456.2" x2="516.1" y2="456.2"/>
	</g>
	<g id="icons">
		<polyline class="st9" points="241.5,168.3 517.2,327.5 517.2,9.3 		"/>
		<path class="st9" d="M788.2,171l-271,156.5l271,156.5C844,387.1,844,267.9,788.2,171L788.2,171z"/>
		<g id="icons-2">
			<line class="st10" x1="44.1" y1="519" x2="85" y2="519"/>
			<line class="st10" x1="44.1" y1="505" x2="85" y2="505"/>
			<line class="st10" x1="44.1" y1="533.9" x2="85" y2="533.9"/>
			<polygon class="st11" points="737.9,349.2 735.7,349.2 735.7,339.8 691.2,339.8 691.2,349.2 689.1,349.2 689.1,337.7 
				737.9,337.7 			"/>
			<rect x="712.4" y="306.4" class="st11" width="2.1" height="10.2"/>
			<rect x="712.4" y="329.5" class="st11" width="2.1" height="19.2"/>
			<path class="st11" d="M721.8,330.2h-39.2v-14.8h39.2V330.2z M684.9,328.1h34.8v-10.5h-34.8V328.1z"/>
			<path class="st11" d="M744.2,330.2h-14.6v-14.8h14.6V330.2z M731.8,328.1h10.3v-10.5h-10.3V328.1z"/>
			<rect x="735.8" y="306.4" class="st11" width="2.1" height="10.2"/>
			<path class="st11" d="M744.2,307.6h-61.5v-14.8h61.5V307.6z M684.8,305.4h57.2v-10.5h-57.2V305.4z"/>
			<path class="st11" d="M720.7,362.6h-14.5v-14.7h14.5V362.6z M708.3,360.4h10.3v-10.5h-10.3V360.4z"/>
			<path class="st11" d="M744.2,362.6h-14.6v-14.7h14.6V362.6z M731.8,360.4h10.3v-10.5h-10.3V360.4z"/>
			<path class="st11" d="M697.2,362.6h-14.6v-14.7h14.6V362.6z M684.8,360.4h10.3v-10.5h-10.3V360.4z"/>
			<path class="st12" d="M651,491.4v-10.9l-9.5-0.8c-0.7-3.5-1.9-6.9-3.8-9.9l6.4-7.6l-7.6-7.7l-7.3,6.3c-2.9-2-6.2-3.4-9.6-4.3
				l-0.8-10H608l-0.8,9.7c-3.5,0.7-6.8,1.9-9.8,3.8l-7.5-6.5l-7.5,7.7l6.1,7.5c-2,3-3.4,6.2-4.2,9.7l-9.8,0.8V490l9.5,0.8
				c0.6,3.5,1.9,6.9,3.8,9.9l-6.4,7.7l7.6,7.7l7.3-6.3c2.9,2,6.1,3.5,9.5,4.3l0.8,10h10.8l0.8-9.7c3.5-0.6,6.8-1.9,9.7-3.8l7.5,6.5
				l7.6-7.7l-6.2-7.5c2-3,3.4-6.3,4.2-9.7L651,491.4z"/>
			<path class="st12" d="M631.9,485.2c-0.2,10.6-8.9,19-19.4,18.9c-10.6-0.2-19-8.9-18.9-19.4c0.2-10.5,8.7-18.9,19.2-18.9
				c10.6,0,19.1,8.6,19.1,19.2C631.9,485.1,631.9,485.2,631.9,485.2z"/>
			<path class="st12" d="M668.3,462.9c-0.1,3.4-2.9,6.1-6.3,6.1c-3.4-0.1-6.1-2.9-6.1-6.3c0.1-3.4,2.8-6.1,6.2-6.1
				C665.6,456.7,668.3,459.4,668.3,462.9z"/>
			<line class="st12" x1="662.1" y1="455.2" x2="662.1" y2="449.3"/>
			<line class="st12" x1="662.1" y1="476.4" x2="662.1" y2="470.5"/>
			<line class="st12" x1="655.7" y1="459.1" x2="650.7" y2="456.1"/>
			<line class="st12" x1="673.6" y1="469.6" x2="668.6" y2="466.7"/>
			<line class="st12" x1="655.7" y1="466.7" x2="650.7" y2="469.6"/>
			<line class="st12" x1="673.6" y1="456.1" x2="668.6" y2="459.1"/>
			<path class="st10" d="M435.4,189.6h23.1c3.5,0.1,6.4-2.8,6.5-6.3c0.1-3.5-2.8-6.4-6.3-6.5l0,0c0-0.6,0-1.1,0-1.6
				c0-7.6-6.1-13.8-13.7-13.8c-1.3,0-2.5,0.2-3.7,0.5c-1.4-11.1-11.5-18.9-22.6-17.5c-10.2,1.3-17.8,10-17.7,20.3v0.1
				c-6.9,0.2-12.3,6-12.1,12.9c0.2,6.9,6,12.3,12.9,12.1c0.2,0,0.4,0,0.6,0h13.1"/>
			<polyline class="st10" points="432.4,184.9 425.8,178.2 419.3,184.9 			"/>
			<line class="st10" x1="425.8" y1="178.8" x2="425.8" y2="204.8"/>
			<line class="st12" x1="420.9" y1="130.2" x2="420.9" y2="136.4"/>
			<line class="st12" x1="433.6" y1="132.4" x2="431.5" y2="138.1"/>
			<line class="st12" x1="444.8" y1="138.7" x2="440.8" y2="143.5"/>
			<line class="st12" x1="453.1" y1="148.6" x2="447.8" y2="151.6"/>
			<line class="st12" x1="397.1" y1="139" x2="401.1" y2="143.7"/>
			<line class="st12" x1="408.2" y1="132.5" x2="410.3" y2="138.3"/>
			<path class="st12" d="M319.4,286.8c0,3,1.4,5.7,3.8,7.5c0.7,0.5,1.1,1.3,1.1,2.2c0,1.4-1.1,2.7-2.5,2.8h-22v57.8h58.7v-22.4
				l-0.2-0.4l0,0L358,334l0,0c-0.2-0.2-0.3-0.3-0.5-0.5h-1.6c-0.9,0-1.7,0.4-2.3,1.1c-3.2,4.2-9.2,4.9-13.3,1.7
				c-4.2-3.2-4.9-9.2-1.7-13.3c3.2-4.2,9.2-4.9,13.3-1.8c0.7,0.5,1.2,1.1,1.8,1.8c0.6,0.4,1.4,0.5,2.1,0.3h1.6
				c0.2-0.1,0.4-0.3,0.5-0.5l0,0l0.2-0.3l0,0l0.2-0.4v-22.5h-22c-1.5-0.1-2.7-1.5-2.5-3c0.1-0.8,0.5-1.5,1.1-2
				c2.4-1.7,3.8-4.5,3.8-7.5c-0.4-5.3-5-9.3-10.3-8.9c-4.8,0.3-8.6,4.1-8.9,8.9L319.4,286.8z"/>
			<path class="st12" d="M594,145.4c0.1,4.9-3.9,8.9-8.8,9c-4.9,0.1-8.9-3.9-9-8.8c-0.1-4.9,3.9-8.9,8.8-9c0,0,0,0,0,0l0,0
				C589.9,136.6,593.8,140.5,594,145.4C593.9,145.4,593.9,145.4,594,145.4L594,145.4z"/>
			<path class="st12" d="M600.7,164.8V164c0-4.9-4-8.8-8.8-8.8c0,0,0,0,0,0h-13.3c-4.9,0-8.8,3.9-8.8,8.8l0,0v0.7"/>
			<path class="st12" d="M629.8,169c0.1,4.9-3.8,8.9-8.7,9c-4.9,0.1-8.9-3.8-9-8.7c-0.1-4.9,3.8-8.9,8.7-9c0,0,0,0,0,0l0,0
				c4.9,0,8.8,3.9,8.9,8.7c0,0,0,0,0,0L629.8,169z"/>
			<path class="st12" d="M636.5,188.4v-0.7c0-4.9-4-8.8-8.8-8.7c0,0,0,0,0,0h-13.3c-4.8,0-8.8,3.9-8.8,8.7l0,0v0.7"/>
			<path class="st12" d="M617.3,205.6c-3.8,1.2-7.7,1.8-11.7,1.8c-17.5,0-32.9-11.5-37.9-28.3"/>
			<path class="st12" d="M594.7,130c3.5-1,7.2-1.5,10.8-1.5c21.8,0,39.4,17.6,39.4,39.4c0,1.5-0.1,3.1-0.3,4.6"/>
			<polygon class="st7" points="564.8,174.8 571.2,178.8 577.6,182.8 570.8,186.3 564,189.8 564.4,182.3 			"/>
			<polygon class="st7" points="645.9,178.8 642.1,172.3 638.3,165.8 645.9,165.8 653.6,165.8 649.8,172.3 			"/>
			<rect x="297" y="514.8" class="st13" width="12.3" height="12.3"/>
			<rect x="312.3" y="530.1" class="st13" width="12.3" height="12.3"/>
			<rect x="312.3" y="499.4" class="st13" width="12.3" height="12.3"/>
			<circle class="st10" cx="316.1" cy="520.8" r="41.5"/>
		</g>
	</g>
	<g id="Arows">
		<path class="st14" d="M205.6,234.1c15.9-52.7,45-100.6,84.4-139"/>
		<path class="st15" d="M831.5,412.6c-13.8,51.3-40,98.5-76.3,137.3"/>
		<path class="st16" d="M831.8,244.8v0.3"/>
		<path class="st16" d="M768.3,121.2c29.9,36.1,51.6,78.3,63.6,123.7"/>
		<path class="st17" d="M433.7,13.5c44.7-11.8,91.4-14,137-6.4"/>
		<path class="st18" d="M613.6,638.9c-31.2,9.7-63.7,14.6-96.4,14.5"/>
		<line class="st18" x1="403.3" y1="653.5" x2="518.4" y2="653.5"/>
		<line class="st19" x1="126.1" y1="653.5" x2="241.1" y2="653.5"/>
		<polygon class="st4" points="764.6,115.7 773.2,119.3 781.9,122.9 774.2,128.6 766.7,134.3 765.6,125 		"/>
		<polygon class="st2" points="426.3,15 433.1,8.5 439.8,2 442,11.2 444.2,20.5 435.3,17.7 		"/>
		<polygon class="st3" points="203.8,244 200.8,235.1 197.8,226.2 207.1,228.2 216.4,230.1 210.1,237 		"/>
		<polygon class="st6" points="833.6,404.9 836.2,413.9 838.9,422.9 829.6,420.6 820.4,418.2 827,411.6 		"/>
		<polygon class="st5" points="620.7,635.2 614.9,642.6 609.1,650 605.7,641.1 602.2,632.3 611.4,633.7 		"/>
		<polygon class="st1" points="246.1,653.5 238,658.2 229.9,663 229.9,653.5 229.9,644 238,648.7 		"/>
	</g>
</g>
</svg>
